<svg xmlns="http://www.w3.org/2000/svg" width="22.794" height="24.951" viewBox="0 0 22.794 24.951">
  <g id="Best_Employee" data-name="Best Employee" transform="translate(-8 -5.728)">
    <path id="Path_4893" data-name="Path 4893" d="M29.574,16.65a2.194,2.194,0,1,0,2.194,2.194A2.194,2.194,0,0,0,29.574,16.65Zm0,3.438a1.242,1.242,0,1,1,.88-.364A1.244,1.244,0,0,1,29.574,20.088Z" transform="translate(-10.177 -5.735)" fill="#ed795e"/>
    <path id="Path_4894" data-name="Path 4894" d="M27.273,27.38A4.251,4.251,0,0,0,23,31.4a.636.636,0,0,0,.18.475.661.661,0,0,0,.475.2h7.237a.661.661,0,0,0,.475-.2.64.64,0,0,0,.18-.48,4.25,4.25,0,0,0-4.274-4.013Zm-3.3,3.747a3.34,3.34,0,0,1,6.591,0Z" transform="translate(-7.876 -11.37)" fill="#ed795e"/>
    <path id="Path_4895" data-name="Path 4895" d="M29.845,43.069h-5.7V40.22a.953.953,0,0,0-.95-.95H15.6a.953.953,0,0,0-.95.95v1.425H8.95a.953.953,0,0,0-.95.95v4.749a.953.953,0,0,0,.95.95H29.845a.953.953,0,0,0,.95-.95V44.019a.953.953,0,0,0-.95-.95Zm-15.2,4.274H8.95V42.594h5.7Zm8.548,0H15.6V40.22h7.6Zm6.648,0h-5.7V44.019h5.7Z" transform="translate(0 -17.613)" fill="#ed795e"/>
    <path id="Path_4896" data-name="Path 4896" d="M19.067,23.219H16.714a.475.475,0,1,1,0-.95h2.353a.475.475,0,1,1,0,.95Z" transform="translate(-4.326 -8.686)" fill="#ed795e"/>
    <path id="Path_4897" data-name="Path 4897" d="M40.806,22.744a.475.475,0,0,1,.475-.475h2.353a.475.475,0,0,1,0,.95H41.281A.475.475,0,0,1,40.806,22.744Z" transform="translate(-17.227 -8.686)" fill="#ed795e"/>
    <path id="Path_4898" data-name="Path 4898" d="M31,9.4V8.044a.475.475,0,0,1,.95,0V9.4a.475.475,0,0,1-.95,0Z" transform="translate(-12.078 -0.967)" fill="#ed795e"/>
    <path id="Path_4899" data-name="Path 4899" d="M15.116,15.925a.475.475,0,0,1,.623-.253L18.405,16.8a.475.475,0,1,1-.37.875l-2.666-1.126A.475.475,0,0,1,15.116,15.925Z" transform="translate(-3.717 -5.202)" fill="#ed795e"/>
    <path id="Path_4900" data-name="Path 4900" d="M41.344,26.621a.475.475,0,0,1,.622-.252l2.666,1.126a.475.475,0,1,1-.37.874L41.6,27.243A.475.475,0,0,1,41.344,26.621Z" transform="translate(-17.49 -10.819)" fill="#ed795e"/>
    <path id="Path_4901" data-name="Path 4901" d="M41.526,16.656l2.681-1.09a.475.475,0,1,1,.357.88l-2.681,1.088a.475.475,0,1,1-.357-.88Z" transform="translate(-17.449 -5.148)" fill="#ed795e"/>
    <path id="Path_4902" data-name="Path 4902" d="M18.721,26.81a.475.475,0,0,1-.261.617l-2.683,1.09a.475.475,0,1,1-.357-.88L18.1,26.548a.475.475,0,0,1,.619.262Z" transform="translate(-3.741 -10.915)" fill="#ed795e"/>
    <path id="Path_4903" data-name="Path 4903" d="M20.8,12.452a.475.475,0,1,1,.712-.627L22.6,13.064a.475.475,0,0,1-.712.627Z" transform="translate(-6.65 -3.109)" fill="#ed795e"/>
    <path id="Path_4904" data-name="Path 4904" d="M39.023,13.054l1.239-1.089a.475.475,0,1,1,.627.712L39.65,13.767a.475.475,0,1,1-.627-.712Z" transform="translate(-16.198 -3.206)" fill="#ed795e"/>
    <path id="Path_4905" data-name="Path 4905" d="M24.124,6.476a.475.475,0,1,1,.862-.4l.864,1.887a.475.475,0,0,1-.864.4Z" transform="translate(-8.438 -0.027)" fill="#ed795e"/>
    <path id="Path_4906" data-name="Path 4906" d="M36.176,7.984,36.9,6.037a.475.475,0,0,1,.89.332l-.724,1.947a.475.475,0,0,1-.445.31.47.47,0,0,1-.165-.03.475.475,0,0,1-.28-.612Z" transform="translate(-14.78)" fill="#ed795e"/>
  </g>
</svg>
