<svg xmlns="http://www.w3.org/2000/svg" width="21.818" height="20" viewBox="0 0 21.818 20">
  <g id="Download" transform="translate(-4 -5)">
    <path id="Path_8931" data-name="Path 8931" d="M25.818,22.273V18.636a.909.909,0,1,0-1.818,0v3.636a.909.909,0,0,1-.909.909H6.727a.909.909,0,0,1-.909-.909V18.636a.909.909,0,1,0-1.818,0v3.636A2.727,2.727,0,0,0,6.727,25H23.091a2.727,2.727,0,0,0,2.727-2.727Zm-5.8-4.745-4.545,3.636a.909.909,0,0,1-1.127,0L9.8,17.527a.909.909,0,0,1,1.127-1.418L14,18.564V5.909a.909.909,0,1,1,1.818,0V18.564l3.073-2.455a.909.909,0,1,1,1.127,1.418Z" transform="translate(0 0)" fill="#fff"/>
  </g>
</svg>
