<svg xmlns="http://www.w3.org/2000/svg" width="44.291" height="38.744" viewBox="0 0 44.291 38.744">
  <g id="employees" transform="translate(0 -32.063)">
    <g id="Group_7545" data-name="Group 7545" transform="translate(24.177 60.577)">
      <g id="Group_7544" data-name="Group 7544" transform="translate(0 0)">
        <path id="Path_13211" data-name="Path 13211" d="M282.556,361.686h-2.428a.649.649,0,0,0,0,1.3h2.428a.649.649,0,1,0,0-1.3Z" transform="translate(-279.479 -361.686)" fill="#fff"/>
      </g>
    </g>
    <g id="Group_7547" data-name="Group 7547" transform="translate(19.095 32.063)">
      <g id="Group_7546" data-name="Group 7546" transform="translate(0 0)">
        <path id="Path_13212" data-name="Path 13212" d="M243.179,53.634l-3.533-1.363-1.8-1.8a.646.646,0,0,0-.417-.188V48.849a6.691,6.691,0,0,0,1.7-3.343,1.856,1.856,0,0,0,.455-.036,1.92,1.92,0,0,0,1.49-1.9v-.473a1.945,1.945,0,0,0-.571-1.38c.573-3.116.1-5.655-1.371-7.355-1.424-1.644-3.717-2.43-6.633-2.272a8.69,8.69,0,0,0-4.983,1.838,3.419,3.419,0,0,0-1.335.454A3.453,3.453,0,0,0,224.6,37.59a16.2,16.2,0,0,0,.45,3.769A1.923,1.923,0,0,0,223.99,43.1v.466a1.92,1.92,0,0,0,1.49,1.9,1.852,1.852,0,0,0,.455.036,6.692,6.692,0,0,0,1.7,3.343v1.433a.645.645,0,0,0-.417.188l-1.8,1.8-3.533,1.363a4.294,4.294,0,0,0-.868.454.649.649,0,1,0,.729,1.073,3,3,0,0,1,.605-.317l3.279-1.265,2.507,3.761a1.856,1.856,0,0,0,1.366.82c.062.006.124.009.186.009a1.852,1.852,0,0,0,.913-.242l-.538,12.2a.649.649,0,0,0,.62.677h.029a.649.649,0,0,0,.648-.62l.5-11.327H233.2l.5,11.327a.649.649,0,0,0,.648.62h.029a.649.649,0,0,0,.62-.677l-.538-12.2a1.852,1.852,0,0,0,.913.242c.062,0,.124,0,.186-.009a1.856,1.856,0,0,0,1.366-.82l2.507-3.761,3.279,1.265a2.986,2.986,0,0,1,1.167.813L241.636,57.9a4.263,4.263,0,0,0-1.257,3.034V70.16a.649.649,0,1,0,1.3,0V60.935a2.974,2.974,0,0,1,.877-2.116l1.969-1.969a2.99,2.99,0,0,1,.1.907l-.5,12.377a.649.649,0,0,0,.622.675h.027a.649.649,0,0,0,.648-.622l.5-12.377A4.29,4.29,0,0,0,243.179,53.634Zm-15.974-8.4a1.263,1.263,0,0,0-1.314-1.03.556.556,0,0,1-.151-.01.629.629,0,0,1-.453-.633V43.1a.615.615,0,0,1,.458-.617.564.564,0,0,1,.555.213.9.9,0,0,0,1.243.2,4.71,4.71,0,0,0,1.064-1.04.649.649,0,1,0-1.041-.774,3.445,3.445,0,0,1-.505.546,1.856,1.856,0,0,0-.7-.376,14.922,14.922,0,0,1-.463-3.657,2.273,2.273,0,0,1,.91-2.075,2.106,2.106,0,0,1,.97-.311.655.655,0,0,0,.448-.179,7.308,7.308,0,0,1,4.342-1.643c2.5-.135,4.43.5,5.582,1.826s1.547,3.4,1.128,5.972a2.812,2.812,0,0,0-.553.039l-.61-1.464a.649.649,0,0,0-.763-.378c-.06.016-6.052,1.535-8.564-1.593a.649.649,0,1,0-1.012.813c2.565,3.194,7.656,2.5,9.35,2.16l.471,1.132a1.066,1.066,0,0,0,1.232.632,1.4,1.4,0,0,1,.485-.036.612.612,0,0,1,.46.609v.473a.629.629,0,0,1-.453.633.55.55,0,0,1-.151.01,1.264,1.264,0,0,0-1.314,1.03,5.414,5.414,0,0,1-10.65,0Zm2.878,11.469a.565.565,0,0,1-.87-.086l-2.526-3.788,1.016-1.016,3.877,3.393Zm1.83.857.039-.892.577-.577.577.577.039.892Zm.616-3.248-3.6-3.15V49.924a6.715,6.715,0,0,0,7.2,0v1.242Zm3.317,2.305a.565.565,0,0,1-.87.086l-1.5-1.5,3.877-3.393,1.016,1.016Z" transform="translate(-220.729 -32.066)" fill="#fff"/>
      </g>
    </g>
    <g id="Group_7549" data-name="Group 7549" transform="translate(0 32.063)">
      <g id="Group_7548" data-name="Group 7548" transform="translate(0 0)">
        <path id="Path_13213" data-name="Path 13213" d="M20.575,57.032l-3.168-1.383-1.732-1.732a.645.645,0,0,0-.417-.188V52.708a6.7,6.7,0,0,0,2.911-4.363,1.864,1.864,0,0,0,.512-.049,1.931,1.931,0,0,0,1.433-1.892v-.473a1.934,1.934,0,0,0-.831-1.6,7.336,7.336,0,0,0,.224-1.8,7.564,7.564,0,0,0-3.643-6.415,4.207,4.207,0,0,0-4.29-4.062,4.207,4.207,0,0,0-4.29,4.062,7.565,7.565,0,0,0-3.643,6.415,7.336,7.336,0,0,0,.223,1.792,1.939,1.939,0,0,0-.83,1.608v.466A1.931,1.931,0,0,0,4.468,48.3a1.861,1.861,0,0,0,.512.049,6.7,6.7,0,0,0,2.911,4.363v1.021a.645.645,0,0,0-.417.188L5.742,55.649,2.574,57.032A4.318,4.318,0,0,0,0,61.146l.383,9.039a.649.649,0,0,0,.648.621h.028a.649.649,0,0,0,.621-.676L1.3,61.091a2.987,2.987,0,0,1,.411-1.634l1.7,2.043a3.607,3.607,0,0,1,.834,2.3v6.353a.649.649,0,0,0,1.3,0V63.805A4.907,4.907,0,0,0,4.412,60.67L2.6,58.5a2.941,2.941,0,0,1,.492-.276l2.761-1.205,1.951,3.167a1.256,1.256,0,0,0,1.884.3l1.236-1.055V70.158a.649.649,0,0,0,1.3,0V59.424l1.236,1.055a1.256,1.256,0,0,0,1.884-.3L17.3,57.016l2.761,1.205a2.945,2.945,0,0,1,.492.276l-1.81,2.172A4.907,4.907,0,0,0,17.6,63.805v6.353a.649.649,0,0,0,1.3,0V63.805a3.607,3.607,0,0,1,.834-2.3l1.7-2.043a2.987,2.987,0,0,1,.411,1.634l-.383,9.039a.649.649,0,0,0,.621.676h.028a.649.649,0,0,0,.648-.621l.383-9.039A4.318,4.318,0,0,0,20.575,57.032Zm-9-23.671a2.973,2.973,0,0,1,2.889,2.074,8.228,8.228,0,0,0-5.778,0A2.973,2.973,0,0,1,11.575,33.361ZM6.25,48.078a1.264,1.264,0,0,0-1.314-1.03.56.56,0,0,1-.169-.014.634.634,0,0,1-.434-.629v-.466a.615.615,0,0,1,.458-.617.564.564,0,0,1,.555.213.9.9,0,0,0,1.244.2,4.706,4.706,0,0,0,1.05-1.022A.649.649,0,0,0,6.6,43.929a3.44,3.44,0,0,1-.495.532,1.859,1.859,0,0,0-.979-.431A6.042,6.042,0,0,1,4.94,42.54a6.5,6.5,0,0,1,6.635-6.332A6.5,6.5,0,0,1,18.21,42.54a6.04,6.04,0,0,1-.187,1.488,2.975,2.975,0,0,0-.5.083l-.488-.4a1.246,1.246,0,0,0-.866-.284c-.954.056-5.838.185-8.343-2.814a.649.649,0,0,0-1,.832,9.272,9.272,0,0,0,5.387,2.973,15.88,15.88,0,0,0,4.006.306l.761.626a.647.647,0,0,0,.738.06,1.432,1.432,0,0,1,.639-.085.612.612,0,0,1,.46.609v.473a.634.634,0,0,1-.434.629.555.555,0,0,1-.169.014,1.265,1.265,0,0,0-1.314,1.03,5.414,5.414,0,0,1-10.65,0ZM8.885,59.461,6.933,56.293l1-1L10.62,57.98Zm2.69-2.36L9.189,54.714V53.372a6.707,6.707,0,0,0,4.772,0v1.342Zm2.69,2.36L12.53,57.98l2.687-2.687,1,1Z" transform="translate(0 -32.063)" fill="#fff"/>
      </g>
    </g>
    <g id="Group_7551" data-name="Group 7551" transform="translate(6.677 63.439)">
      <g id="Group_7550" data-name="Group 7550" transform="translate(0 0)">
        <path id="Path_13214" data-name="Path 13214" d="M79.654,394.766H77.833a.649.649,0,1,0,0,1.3h1.821a.649.649,0,0,0,0-1.3Z" transform="translate(-77.184 -394.766)" fill="#fff"/>
      </g>
    </g>
  </g>
</svg>
