<svg xmlns="http://www.w3.org/2000/svg" width="20.42" height="20.42" viewBox="0 0 20.42 20.42">
  <g id="Logout" transform="translate(-2 -2)">
    <path id="Path_13236" data-name="Path 13236" d="M22.356,6.719V17.565a2.9,2.9,0,0,1-1.875,2.686l-5.209,1.963a3.107,3.107,0,0,1-1.042.207,3.48,3.48,0,0,1-1.667-.516c-.208-.207-.521-.413-.625-.62H7.978a2.9,2.9,0,0,1-2.917-2.892V17.359a.818.818,0,0,1,.833-.826.764.764,0,0,1,.833.826v1.033a1.262,1.262,0,0,0,1.25,1.239h3.438V4.757H7.978A1.2,1.2,0,0,0,6.728,6V7.029a.834.834,0,0,1-1.667,0V6A2.9,2.9,0,0,1,7.978,3.1h3.959l.625-.62a3.131,3.131,0,0,1,2.709-.31L20.48,4.137a2.8,2.8,0,0,1,1.875,2.582Z" transform="translate(0.064 0)" fill="#fff"/>
    <path id="Path_13237" data-name="Path 13237" d="M4.917,14.932a.8.8,0,0,1-.521-.207L2.313,12.66c-.1-.1-.1-.207-.208-.207,0-.1-.1-.207-.1-.31a.377.377,0,0,1,.1-.31.223.223,0,0,1,.208-.207L4.4,9.561a.823.823,0,0,1,1.146,0,.806.806,0,0,1,0,1.136l-.729.723H9.084a.818.818,0,0,1,.833.826c0,.517-.417.62-.833.62H4.709l.729.723a.775.775,0,0,1-.521,1.343Z" transform="translate(0 0.154)" fill="#fff"/>
  </g>
</svg>
