<svg xmlns="http://www.w3.org/2000/svg" width="20.418" height="20.42" viewBox="0 0 20.418 20.42">
  <path id="Production_History" data-name="Production History" d="M24.419,20.652V22.92a.366.366,0,0,1-.365.365H17.1v.769a.368.368,0,0,1-.609.27l-2.527-2.268a.369.369,0,0,1,0-.543l2.527-2.268a.368.368,0,0,1,.609.273v.769h6.953a.363.363,0,0,1,.365.365ZM13.476,22.6s1.761,1.579,1.951,1.747A10.219,10.219,0,1,1,22.9,19.558H17.83V19.54a1.066,1.066,0,0,0-.3-.777,1.132,1.132,0,0,0-.8-.339A1.046,1.046,0,0,0,16,18.7l-2.516,2.261a1.1,1.1,0,0,0-.011,1.637ZM12.8,14.573A1.458,1.458,0,1,0,14.574,12.8V6.916a.365.365,0,1,0-.729,0V12.8A1.45,1.45,0,0,0,12.8,13.844H8.74a.365.365,0,1,0,0,.729Zm1.411.365a.729.729,0,1,0-.729-.729.729.729,0,0,0,.729.729Z" transform="translate(-4 -3.998)" fill="#fff"/>
</svg>
