<svg xmlns="http://www.w3.org/2000/svg" width="24.95" height="24.951" viewBox="0 0 24.95 24.951">
  <path id="data-analysis" d="M28.178,32.127H27.3V19.651a.4.4,0,0,0-.4-.4H24.275a.4.4,0,0,0-.4.4V32.127H22.434v-10a.4.4,0,0,0-.4-.4H19.412a.4.4,0,0,0-.4.4v10H17.571V24.873a.4.4,0,0,0-.4-.4H14.549a.4.4,0,0,0-.4.4v7.254H12.708V27.5a.4.4,0,0,0-.4-.4H9.686a.4.4,0,0,0-.4.4v4.622H8.8V8.384a.4.4,0,1,0-.8,0V32.529a.4.4,0,0,0,.4.4H28.178a.4.4,0,1,0,0-.8Zm-3.5-12.074h1.814V32.127H24.678Zm-4.863,2.473h1.814v9.6H19.815Zm-4.863,2.749h1.814v6.852H14.952Zm-4.863,2.632H11.9v4.22H10.089Zm22.747-7.048-1.765-2.953a.812.812,0,0,0-.793-.389L29.61,16.4a4.9,4.9,0,1,0-7.93-1.644.4.4,0,0,0,.743-.309,4.054,4.054,0,0,1-.172-2.626,4.089,4.089,0,1,1,1.528,4.358.4.4,0,1,0-.477.648,4.885,4.885,0,0,0,4.673.618l.638,1.068a.811.811,0,0,0-.034.883l1.765,2.953a.812.812,0,0,0,1.112.28l1.1-.657a.812.812,0,0,0,.28-1.112Zm-3.857-3.946.572.957-.283.169-.567-.948Q28.843,17.007,28.979,16.914Zm3.163,4.367-1.1.657a.008.008,0,0,1-.009,0l-1.765-2.953a.007.007,0,0,1,0-.009l1.1-.657h0a.008.008,0,0,1,.006,0l1.764,2.953A.008.008,0,0,1,32.143,21.281ZM28.887,13.6a2.776,2.776,0,1,0-5.348.056.4.4,0,0,1-.773.225,3.577,3.577,0,1,1,1.694,2.128.4.4,0,0,1,.392-.7,2.786,2.786,0,0,0,.635.257,2.776,2.776,0,0,0,3.4-1.963Zm-18.7-.551h2.05a.4.4,0,0,0,.4-.4V10.6a.4.4,0,0,0-.4-.4h-2.05a.4.4,0,0,0-.4.4v2.05A.4.4,0,0,0,10.184,13.048Zm.4-2.05h1.246v1.246H10.586Zm3.112-.132a.4.4,0,0,1,.4-.4h6.507a.4.4,0,1,1,0,.8H14.1a.4.4,0,0,1-.4-.4Zm0,1.509a.4.4,0,0,1,.4-.4h6.507a.4.4,0,1,1,0,.8H14.1a.4.4,0,0,1-.4-.4Zm-3.515,4.7h2.05a.4.4,0,0,0,.4-.4V14.62a.4.4,0,0,0-.4-.4h-2.05a.4.4,0,0,0-.4.4v2.05A.4.4,0,0,0,10.184,17.073Zm.4-2.05h1.246v1.246H10.586Zm3.112-.132a.4.4,0,0,1,.4-.4h6.507a.4.4,0,1,1,0,.8H14.1a.4.4,0,0,1-.4-.4Zm0,1.509a.4.4,0,0,1,.4-.4h5.431a.4.4,0,1,1,0,.8H14.1a.4.4,0,0,1-.4-.4ZM9.03,22.642a.4.4,0,0,1,.248-.512,49.093,49.093,0,0,0,16.44-9.446l-.81.012H24.9a.4.4,0,0,1-.006-.8l1.888-.028a.4.4,0,0,1,.4.476L26.84,14.2a.4.4,0,1,1-.791-.147l.13-.7A49.911,49.911,0,0,1,9.543,22.889a.4.4,0,0,1-.512-.248Z" transform="translate(-8 -7.981)" fill="#ed795e"/>
</svg>
