<svg id="Profit" xmlns="http://www.w3.org/2000/svg" width="24.951" height="24.951" viewBox="0 0 24.951 24.951">
  <path id="Path_4907" data-name="Path 4907" d="M4.289,42a4.289,4.289,0,1,0,4.289,4.289A4.289,4.289,0,0,0,4.289,42Zm0,7.8A3.509,3.509,0,1,1,7.8,46.289,3.509,3.509,0,0,1,4.289,49.8Z" transform="translate(0 -25.626)" fill="#ed795e"/>
  <path id="Path_4908" data-name="Path 4908" d="M9.24,47.344a.32.32,0,0,1,.1.207.39.39,0,0,0,.371.4.4.4,0,0,0,.408-.371,1.09,1.09,0,0,0-.312-.771,1.434,1.434,0,0,0-.857-.394V46.39a.39.39,0,1,0-.78,0v.033a1.343,1.343,0,0,0,0,2.664v1.166a.614.614,0,0,1-.29-.138.328.328,0,0,1-.1-.2h0A.39.39,0,1,0,7,49.879a1.09,1.09,0,0,0,.312.771,1.433,1.433,0,0,0,.857.394v.024a.39.39,0,0,0,.78,0v-.033a1.343,1.343,0,0,0,0-2.664V47.206a.613.613,0,0,1,.29.137Zm-1.459.411a.554.554,0,0,1,.389-.529v1.059A.555.555,0,0,1,7.781,47.755ZM9.339,49.7a.554.554,0,0,1-.389.529V49.174A.555.555,0,0,1,9.339,49.7Z" transform="translate(-4.272 -28.066)" fill="#ed795e"/>
  <path id="Path_4909" data-name="Path 4909" d="M36.636,30.764H34.687V14.39A.39.39,0,0,0,34.3,14H31.178a.39.39,0,0,0-.39.39V30.764H29.229V16.729a.39.39,0,0,0-.39-.39H25.72a.39.39,0,0,0-.39.39V30.764H23.771v-11.7a.39.39,0,0,0-.39-.39H20.262a.39.39,0,0,0-.39.39v6.32a.39.39,0,0,0,.78,0v-5.93h2.339V30.764H21.459a.39.39,0,1,0,0,.78H36.246v1.17H20.18a.39.39,0,1,0,0,.78H36.636a.39.39,0,0,0,.39-.39V31.154A.39.39,0,0,0,36.636,30.764ZM31.568,14.78h2.339V30.764H31.568ZM26.11,17.119h2.339V30.764H26.11Z" transform="translate(-12.075 -8.542)" fill="#ed795e"/>
  <path id="Path_4910" data-name="Path 4910" d="M6.39,34.735a.39.39,0,0,0,.39-.39V31.78H9.119v2.565a.39.39,0,0,0,.78,0V31.39a.39.39,0,0,0-.39-.39H6.39a.39.39,0,0,0-.39.39v2.955a.39.39,0,0,0,.39.39Z" transform="translate(-3.661 -18.914)" fill="#ed795e"/>
  <path id="Path_4911" data-name="Path 4911" d="M10.39,9.747h.019c6.986-.333,13.829-6.365,15.966-8.419V3.9a.39.39,0,1,0,.78,0V.385A.4.4,0,0,0,26.764,0H23.256a.39.39,0,1,0,0,.78h2.555c-2.1,2-8.824,7.873-15.439,8.188a.39.39,0,0,0,.018.779Z" transform="translate(-6.101)" fill="#ed795e"/>
</svg>
