<svg xmlns="http://www.w3.org/2000/svg" width="20.748" height="20.42" viewBox="0 0 20.748 20.42">
  <g id="Sales_channel" data-name="Sales channel" transform="translate(-29.955 -33.32)">
    <path id="Path_13215" data-name="Path 13215" d="M52,39.864a2.862,2.862,0,0,1-3.611.188A.583.583,0,0,0,47.654,40q-.993.533-2.01,1.018a.549.549,0,0,0-.356.558,2.89,2.89,0,0,1-5.774.1,8.225,8.225,0,0,1,.123-1.087.572.572,0,0,0-.1-.42c-.78-.593-1.581-1.161-2.381-1.739a3.055,3.055,0,0,1-2.435.652,2.9,2.9,0,1,1,1.2-5.676,2.877,2.877,0,0,1,2.089,3.591.548.548,0,0,0,.262.741c.647.435,1.265.924,1.912,1.363a.549.549,0,0,0,.469.049,2.916,2.916,0,0,1,4.209.766.651.651,0,0,0,.114.079c.37-.188.766-.38,1.161-.583l1.185-.608c-.049-.341-.123-.652-.138-.973a2.858,2.858,0,0,1,2.07-2.914A2.9,2.9,0,0,1,52,39.864Z" transform="translate(-2.255 0)" fill="#fff"/>
    <path id="Path_13216" data-name="Path 13216" d="M35.362,196.347c0,1.487,0,2.974,0,4.465a1.716,1.716,0,0,1-1.833,1.847c-.583.01-1.166,0-1.749,0a1.729,1.729,0,0,1-1.823-1.867c0-2.267,0-4.539,0-6.812,0-.706,0-1.413,0-2.114a1.744,1.744,0,0,1,1.862-1.877c.568,0,1.136-.01,1.7,0a1.724,1.724,0,0,1,1.838,1.847C35.367,193.339,35.362,194.846,35.362,196.347Z" transform="translate(0 -148.926)" fill="#fff"/>
    <path id="Path_13217" data-name="Path 13217" d="M186.177,291.9c0,.692,0,1.378,0,2.07a1.721,1.721,0,0,1-1.793,1.8q-.919.015-1.838,0a1.709,1.709,0,0,1-1.768-1.729c-.025-1.437-.02-2.88,0-4.322a1.731,1.731,0,0,1,1.793-1.758q.919-.015,1.838,0a1.734,1.734,0,0,1,1.768,1.783C186.182,290.457,186.177,291.178,186.177,291.9Z" transform="translate(-143.357 -242.052)" fill="#fff"/>
    <path id="Path_13218" data-name="Path 13218" d="M337.09,238.961c0,1.121,0,2.238,0,3.359a1.742,1.742,0,0,1-1.872,1.867c-.583,0-1.166.01-1.749,0a1.726,1.726,0,0,1-1.783-1.773q-.022-3.475,0-6.945a1.713,1.713,0,0,1,1.754-1.749c.627-.015,1.26-.01,1.887,0a1.729,1.729,0,0,1,1.759,1.749C337.1,236.629,337.09,237.8,337.09,238.961Z" transform="translate(-286.816 -190.492)" fill="#fff"/>
  </g>
</svg>
