<svg xmlns="http://www.w3.org/2000/svg" width="22.711" height="23.7" viewBox="0 0 22.711 23.7">
  <g id="inventory-management" transform="translate(-17.832 -7.15)">
    <line id="Line_2" data-name="Line 2" x2="1.253" transform="translate(28.476 12.393)" fill="none" stroke="#fc526e" stroke-linecap="round" stroke-linejoin="round" stroke-width="0.7"/>
    <path id="Path_8844" data-name="Path 8844" d="M110.137,198.84v-4.65m-14.227,0V206.1" transform="translate(-74.131 -178.05)" fill="none" stroke="#fc526e" stroke-linecap="round" stroke-linejoin="round" stroke-width="0.7"/>
    <path id="Path_8845" data-name="Path 8845" d="M64.722,21.767V13.444L55.515,7.5l-9.652,5.944v7.3m0,1.6v5.7" transform="translate(-26.4 0)" fill="none" stroke="#fc526e" stroke-linecap="round" stroke-linejoin="round" stroke-width="0.7"/>
    <line id="Line_3" data-name="Line 3" x2="1.253" transform="translate(28.476 11.005)" fill="none" stroke="#fc526e" stroke-linecap="round" stroke-linejoin="round" stroke-width="0.7"/>
    <rect id="Rectangle_3014" data-name="Rectangle 3014" width="1.205" height="1.627" transform="translate(28.513 18.797)" fill="none" stroke="#fc526e" stroke-linecap="round" stroke-linejoin="round" stroke-width="0.7"/>
    <line id="Line_4" data-name="Line 4" x2="13.214" transform="translate(18.182 28.047)" fill="none" stroke="#fc526e" stroke-linecap="round" stroke-linejoin="round" stroke-width="0.7"/>
    <path id="Path_8846" data-name="Path 8846" d="M288.3,301.228a1.722,1.722,0,1,1,1.726-1.722,1.725,1.725,0,0,1-1.726,1.722Zm2.123-5.3a4.112,4.112,0,0,0-1.09-.451v-.445a.388.388,0,0,0-.387-.386h-1.292a.387.387,0,0,0-.387.386v.445a4.14,4.14,0,0,0-1.092.451l-.316-.315a.388.388,0,0,0-.546,0l-.914.91a.387.387,0,0,0,0,.546l.316.315a4.079,4.079,0,0,0-.452,1.089h-.446a.387.387,0,0,0-.387.384v1.288a.388.388,0,0,0,.387.386h.446a4.083,4.083,0,0,0,.452,1.089l-.316.315a.386.386,0,0,0,0,.544l.914.912a.388.388,0,0,0,.546,0l.316-.315a4.119,4.119,0,0,0,1.092.451v.445a.388.388,0,0,0,.387.386h1.292a.388.388,0,0,0,.387-.386v-.445a4.112,4.112,0,0,0,1.09-.451l.316.315a.39.39,0,0,0,.547,0l.913-.912a.386.386,0,0,0,0-.544l-.316-.315a4.1,4.1,0,0,0,.452-1.089h.446a.387.387,0,0,0,.387-.386v-1.288a.387.387,0,0,0-.387-.384h-.446a4.081,4.081,0,0,0-.452-1.089l.316-.315a.387.387,0,0,0,0-.546l-.913-.91a.39.39,0,0,0-.547,0Z" transform="translate(-252.971 -273.862)" fill="none" stroke="#fc526e" stroke-linecap="round" stroke-linejoin="round" stroke-width="0.7"/>
    <path id="Path_8847" data-name="Path 8847" d="M204.285,256.244h-4.555a.229.229,0,0,1-.229-.228V251.85a.23.23,0,0,1,.229-.23h4.626a.231.231,0,0,1,.23.23v3.409" transform="translate(-172.929 -232.823)" fill="none" stroke="#fc526e" stroke-linecap="round" stroke-linejoin="round" stroke-width="0.7"/>
    <rect id="Rectangle_3015" data-name="Rectangle 3015" width="1.205" height="1.627" transform="translate(25.971 23.421)" fill="none" stroke="#fc526e" stroke-linecap="round" stroke-linejoin="round" stroke-width="0.7"/>
    <path id="Path_8848" data-name="Path 8848" d="M144.8,351.542h4.854v4.625H144.8a.23.23,0,0,1-.23-.23v-4.166a.23.23,0,0,1,.23-.23Z" transform="translate(-120.534 -328.121)" fill="none" stroke="#fc526e" stroke-linecap="round" stroke-linejoin="round" stroke-width="0.7"/>
    <path id="Path_8849" data-name="Path 8849" d="M95.818,161.666h6.2a.329.329,0,0,0,.329-.328v-.922a.329.329,0,0,0-.329-.328H87.656a.329.329,0,0,0-.329.328v.922a.329.329,0,0,0,.329.328h6.556" transform="translate(-65.945 -145.527)" fill="none" stroke="#fc526e" stroke-linecap="round" stroke-linejoin="round" stroke-width="0.7"/>
  </g>
</svg>
