<svg xmlns="http://www.w3.org/2000/svg" width="43.049" height="38.744" viewBox="0 0 43.049 38.744">
  <g id="kiosk" transform="translate(0 -25.6)">
    <g id="Group_7537" data-name="Group 7537" transform="translate(0 25.6)">
      <path id="Path_13207" data-name="Path 13207" d="M41.614,34.568V32.642a2.149,2.149,0,0,0,1.435-2.02V27.752A2.155,2.155,0,0,0,40.9,25.6H2.152A2.155,2.155,0,0,0,0,27.752v2.869a2.149,2.149,0,0,0,1.435,2.02v1.926a3.948,3.948,0,0,0,2.152,3.51V48.564H1.435a.717.717,0,0,0-.717.717v2.87a.717.717,0,0,0,.717.717H3.577V62.909H.717a.717.717,0,0,0,0,1.435H42.331a.717.717,0,0,0,0-1.435H39.462V52.868h2.152a.717.717,0,0,0,.717-.717v-2.87a.717.717,0,0,0-.717-.717H39.461V38.078A3.948,3.948,0,0,0,41.614,34.568ZM2.152,31.339a.718.718,0,0,1-.717-.717V27.752a.718.718,0,0,1,.717-.717H40.9a.718.718,0,0,1,.717.717v2.869a.718.718,0,0,1-.717.717H2.152Zm9.686,7.175a3.942,3.942,0,0,0,3.229-1.684,3.936,3.936,0,0,0,6.457,0,3.936,3.936,0,0,0,6.457,0,3.936,3.936,0,0,0,6.457,0,3.942,3.942,0,0,0,3.229,1.684c.121,0,.24-.007.359-.018V48.564h-33V38.5c.118.011.238.018.359.018A3.942,3.942,0,0,0,8.61,36.829,3.942,3.942,0,0,0,11.838,38.514ZM9.327,34.568V32.774H14.35v1.794a2.511,2.511,0,1,1-5.022,0Zm6.457,0V32.774h5.022v1.794a2.511,2.511,0,1,1-5.022,0Zm6.457,0V32.774h5.022v1.794a2.511,2.511,0,1,1-5.022,0Zm6.457,0V32.774h5.022v1.794a2.511,2.511,0,1,1-5.022,0Zm-25.829,0V32.774H7.892v1.794a2.511,2.511,0,1,1-5.022,0ZM9.317,62.909h-4.3V52.868h4.3Zm5.741,0H10.752V52.868h4.306Zm5.743,0H16.494V52.868H20.8Zm5.743,0H22.237V52.868h4.308Zm5.743,0H27.98V52.868h4.308Zm5.739,0h-4.3V52.868h4.3ZM40.9,50v1.435H33.03c-.009,0-.016,0-.024,0s-.016,0-.024,0H27.287c-.009,0-.016,0-.024,0s-.016,0-.024,0H21.544c-.009,0-.016,0-.024,0s-.016,0-.024,0H15.8c-.009,0-.016,0-.024,0s-.016,0-.024,0H10.059c-.009,0-.016,0-.024,0s-.016,0-.024,0H4.319c-.009,0-.016,0-.024,0s-.016,0-.024,0H2.152V50H4.291L4.3,50l.014,0H38.73l.014,0,.014,0Zm-3.229-12.92a2.514,2.514,0,0,1-2.511-2.511V32.774h5.022v1.794A2.514,2.514,0,0,1,37.668,37.079Z" transform="translate(0 -25.6)" fill="#fff"/>
    </g>
  </g>
</svg>
