<svg xmlns="http://www.w3.org/2000/svg" width="20.646" height="20.42" viewBox="0 0 20.646 20.42">
  <g id="add-to-cart" transform="translate(-2.531 -3)">
    <path id="Path_13241" data-name="Path 13241" d="M12.482,22.668A5.824,5.824,0,0,0,15.1,27.531H4.961A2.428,2.428,0,0,1,2.55,24.8L4.008,13.129A2.431,2.431,0,0,1,6.42,11h1.2v2.917a.486.486,0,1,0,.972,0V11h5.834v2.917a.486.486,0,1,0,.972,0V11h1.2a2.431,2.431,0,0,1,2.411,2.129l.476,3.821a5.844,5.844,0,0,0-7.006,5.717Z" transform="translate(0 -4.111)" fill="#fff"/>
    <path id="Path_13242" data-name="Path 13242" d="M20.779,6.889h-.972a2.917,2.917,0,0,0-5.834,0H13a3.889,3.889,0,0,1,7.779,0Z" transform="translate(-5.379 0)" fill="#fff"/>
    <path id="Path_13243" data-name="Path 13243" d="M29.862,25a4.862,4.862,0,1,0,4.862,4.862A4.862,4.862,0,0,0,29.862,25Zm1.459,5.348h-.972v.972a.486.486,0,0,1-.972,0v-.972H28.4a.486.486,0,1,1,0-.972h.972V28.4a.486.486,0,1,1,.972,0v.972h.972a.486.486,0,0,1,0,.972Z" transform="translate(-11.545 -11.304)" fill="#fff"/>
  </g>
</svg>
