<svg xmlns="http://www.w3.org/2000/svg" xmlns:xlink="http://www.w3.org/1999/xlink" width="23.001" height="23.001" viewBox="0 0 23.001 23.001">
  <defs>
    <clipPath id="clip-path">
      <path id="path1788" d="M0-682.665H23v23H0Z" transform="translate(0 682.665)" fill="#fc526e"/>
    </clipPath>
  </defs>
  <g id="g1782" transform="translate(0 682.665)">
    <g id="g1784" transform="translate(0 -682.665)">
      <g id="g1786" clip-path="url(#clip-path)">
        <g id="g1792" transform="translate(4.043 5.84)">
          <path id="path1794" d="M0,0H17.236" fill="none" stroke="#fc526e" stroke-linecap="round" stroke-linejoin="round" stroke-width="0.8"/>
        </g>
        <g id="g1796" transform="translate(5.076 0.449)">
          <path id="path1798" d="M-25.768-103.073h0a.9.9,0,0,1-.9-.9v-1.8a.9.9,0,0,1,.9-.9h0a.9.9,0,0,1,.9.9v1.8A.9.9,0,0,1-25.768-103.073Z" transform="translate(26.667 106.666)" fill="none" stroke="#fc526e" stroke-linecap="round" stroke-linejoin="round" stroke-width="0.8"/>
        </g>
        <g id="g1800" transform="translate(15.049 0.449)">
          <path id="path1802" d="M-25.768-103.073h0a.9.9,0,0,0,.9-.9v-1.8a.9.9,0,0,0-.9-.9h0a.9.9,0,0,0-.9.9v1.8A.9.9,0,0,0-25.768-103.073Z" transform="translate(26.667 106.666)" fill="none" stroke="#fc526e" stroke-linecap="round" stroke-linejoin="round" stroke-width="0.8"/>
        </g>
        <g id="g1804" transform="translate(17.026 2.246)">
          <path id="path1806" d="M-127.552-395.97v-12.886a.921.921,0,0,0-.921-.921H-132" transform="translate(132 409.776)" fill="none" stroke="#fc526e" stroke-linecap="round" stroke-linejoin="round" stroke-width="0.8"/>
        </g>
        <g id="g1808" transform="translate(11.087 20.755)">
          <path id="path1810" d="M0,0H4.412" fill="none" stroke="#fc526e" stroke-linecap="round" stroke-linejoin="round" stroke-width="0.8"/>
        </g>
        <g id="g1812" transform="translate(0.449 2.246)">
          <path id="path1814" d="M-127.552,0h-3.527A.921.921,0,0,0-132,.921V17.588a.921.921,0,0,0,.921.921h6.123" transform="translate(132)" fill="none" stroke="#fc526e" stroke-linecap="round" stroke-linejoin="round" stroke-width="0.8"/>
        </g>
        <g id="g1816" transform="translate(7.098 2.246)">
          <path id="path1818" d="M-223.754,0h-7.8" transform="translate(231.555)" fill="none" stroke="#fc526e" stroke-linecap="round" stroke-linejoin="round" stroke-width="0.8"/>
        </g>
        <g id="g1820" transform="translate(2.606 7.996)">
          <path id="path1822" d="M-350.017-304.064h-12.2v-10.6h16.712v7.008" transform="translate(362.222 314.666)" fill="none" stroke="#fc526e" stroke-linecap="round" stroke-linejoin="round" stroke-width="0.8"/>
        </g>
        <g id="g1824" transform="translate(15.005 15.005)">
          <path id="path1826" d="M-216.452-108.226A3.774,3.774,0,0,0-220.226-112,3.774,3.774,0,0,0-224-108.226a3.774,3.774,0,0,0,3.774,3.774A3.774,3.774,0,0,0-216.452-108.226Z" transform="translate(223.999 112)" fill="none" stroke="#fc526e" stroke-linecap="round" stroke-linejoin="round" stroke-width="0.8"/>
        </g>
        <g id="g1828" transform="translate(17.752 18.007)">
          <path id="path1830" d="M0-22.118l.936.936,1.707-1.707" transform="translate(0 22.889)" fill="none" stroke="#fc526e" stroke-linecap="round" stroke-linejoin="round" stroke-width="0.8"/>
        </g>
        <g id="g1832" transform="translate(2.755 11.545)">
          <path id="path1834" d="M0,0H16.494" fill="none" stroke="#fc526e" stroke-linecap="round" stroke-linejoin="round" stroke-width="0.8"/>
        </g>
        <g id="g1836" transform="translate(2.755 15.049)">
          <path id="path1838" d="M0,0H15.439" fill="none" stroke="#fc526e" stroke-linecap="round" stroke-linejoin="round" stroke-width="0.8"/>
        </g>
        <g id="g1840" transform="translate(5.948 7.996)">
          <path id="path1842" d="M0,0V10.544" fill="none" stroke="#fc526e" stroke-linecap="round" stroke-linejoin="round" stroke-width="0.8"/>
        </g>
        <g id="g1844" transform="translate(9.29 7.996)">
          <path id="path1846" d="M0,0V10.544" fill="none" stroke="#fc526e" stroke-linecap="round" stroke-linejoin="round" stroke-width="0.8"/>
        </g>
        <g id="g1848" transform="translate(12.633 7.996)">
          <path id="path1850" d="M0,0V10.544" fill="none" stroke="#fc526e" stroke-linecap="round" stroke-linejoin="round" stroke-width="0.8"/>
        </g>
        <g id="g1852" transform="translate(15.975 7.996)">
          <path id="path1854" d="M0,0V8.221" fill="none" stroke="#fc526e" stroke-linecap="round" stroke-linejoin="round" stroke-width="0.8"/>
        </g>
        <g id="g1856" transform="translate(9.29 20.755)">
          <path id="path1858" d="M0,0H0" fill="none" stroke="#fc526e" stroke-linecap="round" stroke-linejoin="round" stroke-width="0.8"/>
        </g>
        <g id="g1860" transform="translate(2.246 5.84)">
          <path id="path1862" d="M0,0H0" fill="none" stroke="#fc526e" stroke-linecap="round" stroke-linejoin="round" stroke-width="0.8"/>
        </g>
      </g>
    </g>
  </g>
</svg>
