<svg xmlns="http://www.w3.org/2000/svg" width="20.34" height="20.42" viewBox="0 0 20.34 20.42">
  <g id="Notification" transform="translate(-1)">
    <g id="Group_7558" data-name="Group 7558" transform="translate(1 0.08)">
      <g id="Group_7557" data-name="Group 7557">
        <path id="Path_13219" data-name="Path 13219" d="M5.241,3.047a.6.6,0,0,0-.792-.9A10.178,10.178,0,0,0,1,9.777a.6.6,0,1,0,1.2,0,8.981,8.981,0,0,1,3.045-6.73Zm12.649-.9a.6.6,0,0,0-.792.9,8.981,8.981,0,0,1,3.045,6.73.6.6,0,0,0,1.2,0A10.178,10.178,0,0,0,17.89,2.15ZM6.11,3.875a7.773,7.773,0,0,0-2.718,5.9.6.6,0,1,0,1.2,0,6.577,6.577,0,0,1,2.3-4.994.6.6,0,0,0-.779-.908Zm10.119,0a.6.6,0,0,0-.779.908,6.577,6.577,0,0,1,2.3,4.994.6.6,0,0,0,1.2,0,7.773,7.773,0,0,0-2.718-5.9ZM12.367,18.751H9.974a.6.6,0,0,0-.6.6v1.2a1.795,1.795,0,1,0,3.589,0v-1.2A.6.6,0,0,0,12.367,18.751Z" transform="translate(-1 -2)" fill="#fff"/>
      </g>
    </g>
    <path id="Path_13220" data-name="Path 13220" d="M76.385,17.006a7.522,7.522,0,0,1-2.218-5.354V7.857a5.392,5.392,0,0,0-4.786-5.351V.6a.6.6,0,1,0-1.2,0V2.506A5.392,5.392,0,0,0,63.4,7.857v3.795a7.522,7.522,0,0,1-2.218,5.354.6.6,0,0,0,.423,1.021H75.962A.6.6,0,0,0,76.385,17.006Z" transform="translate(-57.613)" fill="#fff"/>
  </g>
</svg>
