<svg xmlns="http://www.w3.org/2000/svg" width="44.598" height="54.385" viewBox="0 0 44.598 54.385">
  <g id="notification" transform="translate(-0.499 -3.67)">
    <path id="Path_11320" data-name="Path 11320" d="M150.791,399.047a6.8,6.8,0,1,0-6.8,6.789A6.794,6.794,0,0,0,150.791,399.047Zm0,0" transform="translate(-121.193 -347.78)" fill="#f7c92b"/>
    <path id="Path_11321" data-name="Path 11321" d="M181.707,392.258a6.8,6.8,0,0,0-1.976.292,6.786,6.786,0,0,1,0,12.993,6.791,6.791,0,1,0,1.976-13.285Zm0,0" transform="translate(-158.908 -347.78)" fill="#f2b51d"/>
    <path id="Path_11322" data-name="Path 11322" d="M166.413,40.342a4.027,4.027,0,1,1,3.159-4.741A4.033,4.033,0,0,1,166.413,40.342Zm0,0" transform="translate(-142.82 -28.697)" fill="#f7c92b"/>
    <path id="Path_11323" data-name="Path 11323" d="M190.3,35.6a4.033,4.033,0,0,0-4.749-3.154,4.121,4.121,0,0,0-.589.165,4.025,4.025,0,0,1,0,7.566A4.033,4.033,0,0,0,190.3,35.6Zm0,0" transform="translate(-163.546 -28.697)" fill="#f2b51d"/>
    <path id="Path_11324" data-name="Path 11324" d="M39.64,130.178H5.956a5.466,5.466,0,0,1-3.4-9.736l1.082-.872a10.61,10.61,0,0,0,3.958-8.264v-5.726a15.321,15.321,0,0,1,30.641,0v5.832a10.61,10.61,0,0,0,3.824,8.154l1.054.877a5.505,5.505,0,0,1,1.984,4.231v.055a5.453,5.453,0,0,1-5.457,5.448Zm0,0" transform="translate(0 -80.048)" fill="#f7e249"/>
    <path id="Path_11325" data-name="Path 11325" d="M184.628,120.441l-1.054-.877a10.611,10.611,0,0,1-3.824-8.155v-5.832A15.332,15.332,0,0,0,160.113,90.9a15.3,15.3,0,0,1,11,14.679v5.832a10.611,10.611,0,0,0,3.824,8.155l1.054.877a5.507,5.507,0,0,1,1.984,4.231v.055a5.453,5.453,0,0,1-5.457,5.448h8.633a5.452,5.452,0,0,0,5.457-5.448v-.055a5.505,5.505,0,0,0-1.984-4.231Zm0,0" transform="translate(-141.516 -80.045)" fill="#f7c92b"/>
  </g>
</svg>
