<svg xmlns="http://www.w3.org/2000/svg" width="22.999" height="23" viewBox="0 0 22.999 23">
  <g id="_6-Remove_from_trolley" data-name="6-Remove from trolley" transform="translate(-1 -1)">
    <path id="Path_8820" data-name="Path 8820" d="M28.823,10.645a4.823,4.823,0,1,1,4.823-4.823A4.823,4.823,0,0,1,28.823,10.645Zm0-8.9A4.081,4.081,0,1,0,32.9,5.823,4.081,4.081,0,0,0,28.823,1.742Z" transform="translate(-14.468)" fill="#232529"/>
    <path id="Path_8821" data-name="Path 8821" d="M34.565,13.742H29.371a.371.371,0,1,1,0-.742h5.194a.371.371,0,1,1,0,.742Z" transform="translate(-17.613 -7.548)" fill="#232529"/>
    <path id="Path_8822" data-name="Path 8822" d="M21.226,55.452a2.226,2.226,0,1,1,2.226-2.226,2.226,2.226,0,0,1-2.226,2.226Zm0-3.71a1.484,1.484,0,1,0,1.484,1.484A1.484,1.484,0,0,0,21.226,51.742Z" transform="translate(-11.323 -31.452)" fill="#232529"/>
    <path id="Path_8823" data-name="Path 8823" d="M46.226,55.452a2.226,2.226,0,1,1,2.226-2.226,2.226,2.226,0,0,1-2.226,2.226Zm0-3.71a1.484,1.484,0,1,0,1.484,1.484A1.484,1.484,0,0,0,46.226,51.742Z" transform="translate(-27.048 -31.452)" fill="#232529"/>
    <path id="Path_8824" data-name="Path 8824" d="M14.339,25.129a.371.371,0,0,1-.356-.269L11.015,14.473A.371.371,0,0,1,11.371,14h3.71a.371.371,0,1,1,0,.742H11.863l2.748,9.62L26.674,23.3l2.738-8.556h-3.2a.371.371,0,1,1,0-.742h3.71a.371.371,0,0,1,.353.482l-2.968,9.274a.371.371,0,0,1-.321.256L14.372,25.126a.11.11,0,0,1-.033,0Z" transform="translate(-6.291 -8.177)" fill="#232529"/>
    <path id="Path_8825" data-name="Path 8825" d="M21.4,24.323H8.79A1.113,1.113,0,0,1,7.677,23.21V21.037L4.061,8.742H1.371a.371.371,0,0,1,0-.742H4.339a.371.371,0,0,1,.356.266L8.4,20.879a.366.366,0,0,1,.015.1V23.21a.371.371,0,0,0,.371.371H21.4a.371.371,0,1,1,0,.742Z" transform="translate(0 -4.403)" fill="#232529"/>
  </g>
</svg>
