<svg xmlns="http://www.w3.org/2000/svg" width="25" height="25" viewBox="0 0 25 25">
  <g id="Edit" transform="translate(-1820 -336)">
    <g id="Group_7560" data-name="Group 7560" transform="translate(-11 3)">
      <rect id="Rectangle_4633" data-name="Rectangle 4633" width="25" height="25" rx="12.5" transform="translate(1831 333)" fill="#232529"/>
      <path id="Path_8863" data-name="Path 8863" d="M3.339,11.842H3.4l1.744-.161a1.051,1.051,0,0,0,.643-.3L12.373,4.8a1.624,1.624,0,0,0,0-2.309l-.423-.423a1.675,1.675,0,0,0-2.315,0L8.8,2.9h0L3.059,8.64a1.013,1.013,0,0,0-.3.643L2.6,11.027a.765.765,0,0,0,.214.6.734.734,0,0,0,.524.22ZM10.8,2.475a.72.72,0,0,1,.524.22l.423.423a.734.734,0,0,1,.22.524.724.724,0,0,1-.22.524l-.524.524-1.47-1.47.524-.524a.745.745,0,0,1,.524-.22ZM3.648,9.367a.127.127,0,0,1,.042-.089L9.112,3.85l1.47,1.47L5.16,10.741a.249.249,0,0,1-.089.042l-1.565.143.143-1.565Zm10.4,4.374a.45.45,0,0,1-.446.446H1.7a.446.446,0,1,1,0-.893H13.6A.45.45,0,0,1,14.045,13.741Z" transform="translate(1835.853 337.606)" fill="#fff"/>
    </g>
  </g>
</svg>
