<svg xmlns="http://www.w3.org/2000/svg" width="25" height="25" viewBox="0 0 25 25">
  <g id="Delete" transform="translate(-1831 -358)">
    <rect id="Rectangle_4634" data-name="Rectangle 4634" width="25" height="25" rx="12.5" transform="translate(1831 358)" fill="#232529"/>
    <g id="Group_6574" data-name="Group 6574" transform="translate(1835.263 362.456)">
      <path id="Path_8864" data-name="Path 8864" d="M11.366,15.5H6.651A1.873,1.873,0,0,1,4.808,13.74l-.559-8.5A.467.467,0,0,1,4.372,4.9.473.473,0,0,1,4.71,4.75h8.6a.461.461,0,0,1,.461.491l-.534,8.5A1.873,1.873,0,0,1,11.366,15.5ZM5.226,5.671,5.7,13.684a.952.952,0,0,0,.952.89h4.716a.958.958,0,0,0,.952-.89l.5-7.983Z" transform="translate(-0.772 -1.158)" fill="#fff"/>
      <path id="Path_8865" data-name="Path 8865" d="M13.763,5.671H2.711a.461.461,0,1,1,0-.921H13.763a.461.461,0,0,1,0,.921Z" transform="translate(0 -1.158)" fill="#fff"/>
      <path id="Path_8866" data-name="Path 8866" d="M12.395,4.513H8.711a.467.467,0,0,1-.461-.461V2.947a1.228,1.228,0,0,1,1.2-1.2h2.211a1.228,1.228,0,0,1,1.2,1.228V4.053A.467.467,0,0,1,12.395,4.513ZM9.171,3.592h2.763V2.978a.276.276,0,0,0-.276-.276H9.447a.276.276,0,0,0-.276.276Z" transform="translate(-2.316)" fill="#fff"/>
      <path id="Path_8867" data-name="Path 8867" d="M14.711,14.583a.467.467,0,0,1-.461-.461V9.211a.461.461,0,0,1,.921,0v4.912A.467.467,0,0,1,14.711,14.583Z" transform="translate(-4.631 -2.702)" fill="#fff"/>
      <path id="Path_8868" data-name="Path 8868" d="M8.711,14.583a.467.467,0,0,1-.461-.461V9.211a.461.461,0,0,1,.921,0v4.912A.467.467,0,0,1,8.711,14.583Z" transform="translate(-2.316 -2.702)" fill="#fff"/>
      <path id="Path_8869" data-name="Path 8869" d="M11.711,14.583a.467.467,0,0,1-.461-.461V9.211a.461.461,0,0,1,.921,0v4.912A.467.467,0,0,1,11.711,14.583Z" transform="translate(-3.474 -2.702)" fill="#fff"/>
    </g>
  </g>
</svg>
