<svg xmlns="http://www.w3.org/2000/svg" width="13.921" height="17.19" viewBox="0 0 13.921 17.19">
  <g id="user_1_" data-name="user (1)" transform="translate(-4.663 -2)">
    <path id="Path_8949" data-name="Path 8949" d="M11.22,22.9H6.469a.6.6,0,0,1-.6-.6V18.937a2.555,2.555,0,0,1,1.168-2.151l.134-.083.011-.007a.6.6,0,1,0-.639-1.021l-.152.1a3.759,3.759,0,0,0-1.726,3.167V22.3A1.808,1.808,0,0,0,6.469,24.1H11.22a.6.6,0,1,0,0-1.2Z" transform="translate(0 -5.244)" fill="#fc526e"/>
    <path id="Path_8950" data-name="Path 8950" d="M20.907,15.866a.6.6,0,0,0,.191.83l.137.086A2.559,2.559,0,0,1,22.4,18.728a.6.6,0,0,0,.6.558l.045,0a.6.6,0,0,0,.556-.645,3.772,3.772,0,0,0-1.72-2.874l-.144-.091a.6.6,0,0,0-.83.191Z" transform="translate(-6.236 -5.244)" fill="#fc526e"/>
    <path id="Path_8951" data-name="Path 8951" d="M12.268,10.749A4.375,4.375,0,1,0,7.894,6.375,4.379,4.379,0,0,0,12.268,10.749Zm0-7.545A3.17,3.17,0,1,1,9.1,6.375,3.174,3.174,0,0,1,12.268,3.2Z" transform="translate(-1.248 0)" fill="#fc526e"/>
    <path id="Path_8952" data-name="Path 8952" d="M23.375,23.214a.6.6,0,0,0-.851,0l-2.644,2.644-1.321-1.321a.6.6,0,0,0-.851.851l1.747,1.747a.6.6,0,0,0,.851,0l3.07-3.07A.6.6,0,0,0,23.375,23.214Z" transform="translate(-4.968 -8.122)" fill="#fc526e"/>
  </g>
</svg>
