<svg id="Group_6570" data-name="Group 6570" xmlns="http://www.w3.org/2000/svg" width="10.038" height="10.038" viewBox="0 0 10.038 10.038">
  <path id="Path_8858" data-name="Path 8858" d="M5.019,10.038a5.019,5.019,0,1,1,5.019-5.019A5.024,5.024,0,0,1,5.019,10.038Zm0-9.321a4.3,4.3,0,1,0,4.3,4.3A4.307,4.307,0,0,0,5.019.717Zm0,0"/>
  <path id="Path_8859" data-name="Path 8859" d="M150.23,150.59a.357.357,0,0,1-.253-.105l-3.585-3.585a.358.358,0,0,1,.507-.507l3.585,3.585a.359.359,0,0,1-.253.612Zm0,0" transform="translate(-143.419 -143.42)"/>
  <path id="Path_8860" data-name="Path 8860" d="M146.644,150.589a.358.358,0,0,1-.253-.612l3.585-3.585a.358.358,0,0,1,.507.507l-3.585,3.585A.357.357,0,0,1,146.644,150.589Zm0,0" transform="translate(-143.418 -143.419)"/>
</svg>
