<svg xmlns="http://www.w3.org/2000/svg" width="20.418" height="20.42" viewBox="0 0 20.418 20.42">
  <g id="Dashboard" transform="translate(0 0.025)">
    <g id="menu" transform="translate(0 -0.025)">
      <path id="Path_13231" data-name="Path 13231" d="M.758.942A2.545,2.545,0,0,1,2.569.2C3.633.2,4.674.2,5.663.2H7.235a2.539,2.539,0,0,1,2.5,2.5c.028,1.647.028,3.179,0,4.674a2.554,2.554,0,0,1-2.572,2.54c-.778.012-1.559.016-2.321.016C2.628,9.955.2,10.234.016,7.3c.008-.857,0-1.7,0-2.556.052-1.276-.3-2.836.742-3.8Z" transform="translate(0 -0.191)" fill="#fff"/>
      <path id="Path_13232" data-name="Path 13232" d="M9.759,271.967c0,.845,0,1.723,0,2.584a2.616,2.616,0,0,1-2.588,2.688c-1.2-.028-2.489,0-3.7,0a3.3,3.3,0,0,1-2.692-.746,3.013,3.013,0,0,1-.746-2.449c0-1.312,0-2.668.008-4a2.517,2.517,0,0,1,1.874-2.425,19.713,19.713,0,0,1,3.147-.108c.666,0,1.328,0,1.994,0,2.756.144,2.788,2.261,2.7,4.459Z" transform="translate(-0.024 -256.827)" fill="#fff"/>
      <path id="Path_13233" data-name="Path 13233" d="M276.338,269.483a4.86,4.86,0,1,1-6.876.008A4.878,4.878,0,0,1,276.338,269.483Z" transform="translate(-257.351 -257.37)" fill="#fff"/>
      <path id="Path_13234" data-name="Path 13234" d="M267.64,7.111c-.02-1.623-.02-3.119,0-4.566a2.555,2.555,0,0,1,2.544-2.56h.032c1.527-.012,3.051-.012,4.646,0a2.551,2.551,0,0,1,2.493,2.5c.008.889,0,1.763,0,2.644-.044,1.276.275,2.86-.746,3.825-1.041,1.089-2.768.678-4.116.762-.766,0-1.531,0-2.273-.016a2.571,2.571,0,0,1-2.58-2.564Z" transform="translate(-256.952 0.025)" fill="#fff"/>
    </g>
  </g>
</svg>
