<svg xmlns="http://www.w3.org/2000/svg" width="22.111" height="23.001" viewBox="0 0 22.111 23.001">
  <g id="Group_6681" data-name="Group 6681" transform="translate(-6.063 -5.001)">
    <path id="path871" d="M30.176,21.119a.639.639,0,0,0-.9.014l-5.723,5.723a.639.639,0,1,0,.9.9l5.723-5.723a.639.639,0,0,0,0-.917Zm-7.229,7.229a.639.639,0,0,0-.9.014l-.9.9a.639.639,0,1,0,.9.9l.9-.9a.639.639,0,0,0,0-.917Z" transform="translate(-8.548 -9.149)" fill="#fc526e"/>
    <path id="path873" d="M35.13,34a2.13,2.13,0,1,0,2.13,2.13A2.14,2.14,0,0,0,35.13,34Zm0,1.278a.852.852,0,1,1-.852.852A.842.842,0,0,1,35.13,35.278Z" transform="translate(-15.463 -16.647)" fill="#fc526e"/>
    <path id="circle875" d="M23.13,20a2.13,2.13,0,1,0,2.13,2.13A2.14,2.14,0,0,0,23.13,20Zm0,1.278a.852.852,0,1,1-.852.852A.842.842,0,0,1,23.13,21.278Z" transform="translate(-8.575 -8.61)" fill="#fc526e"/>
    <path id="path818" d="M17.111,5c-1.268.145-2.058,1.347-3.137,1.906-1.2.18-2.55-.334-3.665.291-.936.862-.87,2.289-1.411,3.374-.868.849-2.258,1.219-2.793,2.376-.248,1.248.65,2.36.854,3.554-.2,1.194-1.1,2.306-.854,3.554.534,1.158,1.925,1.527,2.793,2.376.541,1.085.475,2.513,1.411,3.375,1.115.625,2.46.111,3.665.291,1.08.558,1.869,1.761,3.137,1.906,1.268-.146,2.056-1.348,3.136-1.906,1.213-.219,2.525.171,3.685-.3a.64.64,0,0,0-.563-1.122c-1.474.293-3.223-.383-4.444.763-.632.34-1.324,1.381-1.982,1.206-1.2-.637-2.119-2.09-3.65-1.853-.712-.095-1.885.345-2.316-.182-.6-1.219-.479-2.93-1.857-3.632-.52-.492-1.728-.822-1.766-1.5C7.589,18.142,8.7,16.832,8,15.454c-.131-.7-.912-1.677-.542-2.246.98-.942,2.65-1.35,2.9-2.877.311-.644.256-1.892.89-2.133,1.35-.188,2.944.455,4.049-.633.632-.34,1.324-1.379,1.982-1.206,1.2.637,2.119,2.09,3.65,1.854.712.095,1.885-.345,2.316.182.6,1.218.478,2.93,1.857,3.631.52.493,1.728.822,1.766,1.5-.237,1.334-1.345,2.644-.646,4.022.131.7.911,1.677.542,2.247-.94.921-2.55,1.3-2.87,2.738-.214.439-.332,1.207.292,1.367s.888-.529.96-1c.3-1,1.518-1.245,2.214-1.925a1.781,1.781,0,0,0,.61-2.356c-.277-1.012-1.074-2.052-.413-3.086.3-.96,1.046-2.144.281-3.069-.73-.767-1.733-1.19-2.517-1.89-.541-1.085-.475-2.512-1.411-3.374-1.115-.625-2.46-.111-3.665-.291C19.172,6.352,18.374,5.141,17.111,5Z" fill="#fc526e"/>
  </g>
</svg>
