<svg xmlns="http://www.w3.org/2000/svg" width="22.771" height="23" viewBox="0 0 22.771 23">
  <path id="deal" d="M17,13.813a1.328,1.328,0,1,0,1.328,1.328A1.329,1.329,0,0,0,17,13.813Zm0,1.916a.588.588,0,1,1,.588-.588A.589.589,0,0,1,17,15.729Zm.715-5.08-4.035,5.616a.369.369,0,1,1-.6-.431l4.035-5.616a.369.369,0,1,1,.6.431Zm-2.593.652a1.328,1.328,0,1,0-1.328,1.328A1.329,1.329,0,0,0,15.119,11.3Zm-1.916,0a.588.588,0,1,1,.588.588A.589.589,0,0,1,13.2,11.3Zm19.3,5.735-.9-4.826a2.69,2.69,0,0,0-.949-1.767,2.61,2.61,0,0,0-1.844-.467L26.807,7.743a1.369,1.369,0,0,0-1.043-.465h-14.6a1.405,1.405,0,0,0-1.4,1.4V17.76a1.405,1.405,0,0,0,1.4,1.4H16.48L13.924,22.5a1.405,1.405,0,0,0,.259,1.968l7.2,5.526a1.4,1.4,0,0,0,1.968-.259L32.24,18.147A1.369,1.369,0,0,0,32.506,17.036ZM11.164,18.424a.664.664,0,0,1-.664-.664V8.682a.664.664,0,0,1,.664-.664h14.6a.631.631,0,0,1,.493.22l1.629,1.811-4.072.319a1.369,1.369,0,0,0-1,.545l-5.762,7.511ZM31.653,17.7,22.767,29.279a.664.664,0,0,1-.931.123l-7.2-5.526a.665.665,0,0,1-.123-.931L23.4,11.363a.631.631,0,0,1,.475-.258l4.893-.383a2.042,2.042,0,0,1,1.444.308,1.942,1.942,0,0,1,.672,1.315l.9,4.826A.631.631,0,0,1,31.653,17.7Zm-2.429-5.381a1.331,1.331,0,1,0,.246,1.866A1.332,1.332,0,0,0,29.224,12.315Zm-.341,1.416a.591.591,0,1,1-.938-.719.591.591,0,0,1,.938.719Zm-.242,3.228-1.2,1.568a.369.369,0,0,1-.517.069l-3.194-2.449a.369.369,0,0,1,.448-.587l2.9,2.225.977-1.274a.369.369,0,0,1,.587.448Zm-7.046,6.956-1.626-1.247a1.387,1.387,0,0,0-1.9.252l-.6.784a.369.369,0,0,0,.069.517l3.194,2.449a.369.369,0,0,0,.517-.069l.6-.784A1.4,1.4,0,0,0,21.595,23.915ZM21.26,25.37l-.376.49-2.608-2,.377-.492a.628.628,0,0,1,.868-.113L21.147,24.5A.628.628,0,0,1,21.26,25.37Zm3.187-2.943-1.2,1.568a.369.369,0,0,1-.517.069l-3.194-2.449a.369.369,0,0,1-.069-.517l1.2-1.568a.369.369,0,0,1,.587.448l-.978,1.276,1.011.775.627-.817a.369.369,0,1,1,.587.448l-.628.818,1.011.775.977-1.274a.369.369,0,1,1,.587.448Zm2.113-3.485-3.979-1.425h0a.369.369,0,0,0-.427.557l2.408,3.474a.369.369,0,1,0,.607-.419l-.576-.831.768-1,.952.341a.37.37,0,1,0,.249-.7Zm-2.41.719-.735-1.06,1.214.435Z" transform="translate(-9.761 -7.278)" fill="#fc526e"/>
</svg>
