<svg id="Group_6909" data-name="Group 6909" xmlns="http://www.w3.org/2000/svg" width="16.352" height="17.19" viewBox="0 0 16.352 17.19">
  <path id="Path_8864" data-name="Path 8864" d="M13.969,19.424H7.529a2.558,2.558,0,0,1-2.516-2.4L4.25,5.421a.637.637,0,0,1,.168-.461.646.646,0,0,1,.461-.21h11.74a.629.629,0,0,1,.629.671l-.73,11.605a2.558,2.558,0,0,1-2.549,2.4ZM5.583,6.008l.646,10.943a1.3,1.3,0,0,0,1.3,1.216h6.44a1.308,1.308,0,0,0,1.3-1.216l.679-10.9Z" transform="translate(-2.573 -2.235)" fill="#fc526e"/>
  <path id="Path_8865" data-name="Path 8865" d="M17.973,6.008H2.879a.629.629,0,1,1,0-1.258H17.973a.629.629,0,1,1,0,1.258Z" transform="translate(-2.25 -2.235)" fill="#fc526e"/>
  <path id="Path_8866" data-name="Path 8866" d="M13.91,5.523H8.879a.637.637,0,0,1-.629-.629V3.385A1.677,1.677,0,0,1,9.885,1.75H12.9a1.677,1.677,0,0,1,1.635,1.677V4.895a.637.637,0,0,1-.629.629Zm-4.4-1.258h3.774V3.427A.377.377,0,0,0,12.9,3.05H9.885a.377.377,0,0,0-.377.377Z" transform="translate(-3.219 -1.75)" fill="#fc526e"/>
  <path id="Path_8867" data-name="Path 8867" d="M14.879,16.716a.637.637,0,0,1-.629-.629V9.379a.629.629,0,0,1,1.258,0v6.708A.637.637,0,0,1,14.879,16.716Z" transform="translate(-4.187 -2.881)" fill="#fc526e"/>
  <path id="Path_8868" data-name="Path 8868" d="M8.879,16.716a.637.637,0,0,1-.629-.629V9.379a.629.629,0,0,1,1.258,0v6.708A.637.637,0,0,1,8.879,16.716Z" transform="translate(-3.219 -2.881)" fill="#fc526e"/>
  <path id="Path_8869" data-name="Path 8869" d="M11.879,16.716a.637.637,0,0,1-.629-.629V9.379a.629.629,0,0,1,1.258,0v6.708A.637.637,0,0,1,11.879,16.716Z" transform="translate(-3.703 -2.881)" fill="#fc526e"/>
</svg>
