<svg xmlns="http://www.w3.org/2000/svg" width="22" height="21.999" viewBox="0 0 22 21.999">
  <path id="damaged-package_1_" data-name="damaged-package (1)" d="M21.259,3.49,11.361.063a1.078,1.078,0,0,0-.72,0L.741,3.491A1.1,1.1,0,0,0,0,4.533V7.957a.92.92,0,0,0,.315.693l.722.627a.183.183,0,0,1,.064.141v.66a1.521,1.521,0,0,0,.078.482l.235.706-.466.468H.733A.733.733,0,0,0,0,12.467v5a1.1,1.1,0,0,0,.741,1.043l9.9,3.427a1.079,1.079,0,0,0,.72,0l9.9-3.428A1.1,1.1,0,0,0,22,17.468V10.117a.713.713,0,0,0-.4-.641l-.335-.167a.684.684,0,0,0-.791.128l-.428.427a.348.348,0,0,1-.161.088l-1.67.371,1.266-1.083a1.07,1.07,0,0,0,.35-.628l.107-.63A.081.081,0,0,1,20,7.919l1.51-.521A.731.731,0,0,0,22,6.708V4.533A1.1,1.1,0,0,0,21.259,3.49ZM11,7.313,8.457,6.436l9.553-3.294,2.537.88ZM4.033,5.686,6.967,6.7V10.91a.09.09,0,0,1-.159.058l-.788-.946A.825.825,0,0,0,5,9.813l-.839.428a.087.087,0,0,1-.087,0,.086.086,0,0,1-.043-.077Zm.756-.513,9.561-3.3,2.538.88L7.333,6.048ZM10.884.754a.342.342,0,0,1,.234,0l2.11.731-9.562,3.3L1.453,4.02ZM.733,17.468v-5H.948a.739.739,0,0,0,.518-.215l.466-.466a.729.729,0,0,0,.177-.749l-.236-.707a.8.8,0,0,1-.04-.251v-.66a.92.92,0,0,0-.315-.692L.8,8.1a.185.185,0,0,1-.064-.139V4.547L3.3,5.433v4.728a.823.823,0,0,0,1.2.733l.839-.428a.1.1,0,0,1,.12.024l.788.946a.815.815,0,0,0,.628.3.829.829,0,0,0,.284-.051A.814.814,0,0,0,7.7,10.91V6.95l2.933,1.012v13.2l-2.2-.762V17.234a.367.367,0,1,0-.733,0v2.911l-1.1-.381V18.7a.367.367,0,1,0-.733,0v.809L.981,17.818A.369.369,0,0,1,.733,17.468ZM19.757,7.224a.816.816,0,0,0-.538.635l-.107.633A.33.33,0,0,1,19,8.685L17.4,10.06a.62.62,0,0,0,.538,1.077l2.115-.466a1.083,1.083,0,0,0,.518-.285l.4-.4.293.137v7.349a.369.369,0,0,1-.248.35L11.367,21.16V16.886l2.315-.77a.367.367,0,0,0-.231-.7l-2.084.694v-1.06l1.582-.525a.367.367,0,0,0-.231-.7l-1.351.449V7.962l9.9-3.415V6.7Z" transform="translate(0 -0.001)" fill="#232529"/>
</svg>
