<svg xmlns="http://www.w3.org/2000/svg" width="17.475" height="17.19" viewBox="0 0 17.475 17.19">
  <g id="Group_6910" data-name="Group 6910" transform="translate(0 0)">
    <path id="Path_8863" data-name="Path 8863" d="M4.1,15.588h.089l2.381-.219a1.436,1.436,0,0,0,.878-.415l8.989-8.989a2.217,2.217,0,0,0,0-3.154l-.577-.577a2.288,2.288,0,0,0-3.162,0L11.556,3.38h0L3.721,11.215a1.384,1.384,0,0,0-.406.878L3.1,14.474a1.044,1.044,0,0,0,.293.813,1,1,0,0,0,.715.3ZM14.287,2.795A.984.984,0,0,1,15,3.1l.577.577a1,1,0,0,1,.3.715.989.989,0,0,1-.3.715l-.715.715L12.857,3.811l.715-.715A1.017,1.017,0,0,1,14.287,2.795ZM4.526,12.207a.173.173,0,0,1,.057-.122l7.4-7.412L13.994,6.68l-7.4,7.4a.34.34,0,0,1-.122.057l-2.138.2.2-2.138Zm14.2,5.974a.614.614,0,0,1-.61.61H1.86a.61.61,0,1,1,0-1.219H18.115A.614.614,0,0,1,18.725,18.181Z" transform="translate(-1.25 -1.6)" fill="#fc526e"/>
  </g>
</svg>
