<svg xmlns="http://www.w3.org/2000/svg" width="24.556" height="23" viewBox="0 0 24.556 23">
  <g id="employee" transform="translate(0 -16.224)">
    <g id="Group_6684" data-name="Group 6684" transform="translate(0 16.224)">
      <path id="Path_8922" data-name="Path 8922" d="M24.2,35.681a.36.36,0,0,0-.36.36v2.4a.061.061,0,0,1-.061.061H22.409V33.249a.36.36,0,1,0-.719,0V38.5H19.049l.715-.786a.575.575,0,0,0,.139-.462l0-.011L19.1,32.5l.148-.223.039.027a.563.563,0,0,0,.83-.208h0l.818-1.639,1.868.723A1.79,1.79,0,0,1,23.837,32.8v1.559a.36.36,0,1,0,.719,0V32.8a2.508,2.508,0,0,0-1.484-2.289l-.007,0-3.181-1.232v-.655a2.627,2.627,0,0,0,.95-1.631A1.255,1.255,0,0,0,21.5,26.7a1.239,1.239,0,0,0,.151-1.722v-.971a3.442,3.442,0,0,0-5.681-2.618,1.237,1.237,0,0,0-.278-.749v-.971a3.445,3.445,0,1,0-6.89,0v1a1.173,1.173,0,0,0-.278.72,3.43,3.43,0,0,0-1.357-.711.36.36,0,0,0-.183.7,2.726,2.726,0,0,1,2.029,2.635v.538l-.067-.012a.414.414,0,0,0-.086-.243c-.092-.132-.257-.3-.789-.869a.569.569,0,0,0-.729-.089,5.14,5.14,0,0,1-3.045.838.575.575,0,0,0-.633.368l-.1.02v-.552A2.743,2.743,0,0,1,5.5,21.4a.36.36,0,1,0-.208-.689,3.472,3.472,0,0,0-1.756,1.225,3.414,3.414,0,0,0-.694,2.073v1a1.172,1.172,0,0,0-.279.758,1.242,1.242,0,0,0,1.1,1.233,2.657,2.657,0,0,0,1,1.673v.613L1.491,30.511l-.007,0A2.508,2.508,0,0,0,0,32.8v5.641a.781.781,0,0,0,.78.78H11.858a.775.775,0,0,0,.42-.124.775.775,0,0,0,.42.124H23.776a.781.781,0,0,0,.78-.78v-2.4A.36.36,0,0,0,24.2,35.681ZM3.631,26.25a.519.519,0,0,1-.346-.49.531.531,0,0,1,.346-.468ZM20.258,30.2l-.706,1.415-.8-.565.883-1.09Zm-2.022.349-.93-1.148v-.345a2.9,2.9,0,0,0,.935.153h0a2.659,2.659,0,0,0,.924-.168V29.4Zm.422,1.314-.132.2h-.58l-.132-.2.422-.3Zm-6.381-5.651-.93-1.148v-.345a2.9,2.9,0,0,0,.935.153h0a2.659,2.659,0,0,0,.924-.168v.362Zm.422,1.314-.132.2h-.58l-.132-.2.422-.3Zm-3.255-4.9a1.286,1.286,0,0,0,.181.034,2.657,2.657,0,0,0,1,1.673v.613l-.734.284a1.233,1.233,0,0,0-.159-.251v-.971A3.436,3.436,0,0,0,9.444,22.622Zm4.744-.381a1.94,1.94,0,0,1-3.879,0V20.556a5.891,5.891,0,0,0,3.281-.892c.324.348.517.55.6.644C14.189,21.2,14.189,21.549,14.189,22.241Zm.686.415a1.294,1.294,0,0,0,.18-.035,3.424,3.424,0,0,0-.291,1.384v1a1.228,1.228,0,0,0-.142.21l-.7-.269v-.655A2.627,2.627,0,0,0,14.875,22.656Zm-4,2.964.883,1.09-.6.428h0l-.191.136-.706-1.415Zm2.232.709.575-.71.619.24-.706,1.415-.192-.136h0l-.6-.429Zm.181,1.61.039.027a.563.563,0,0,0,.83-.208h0l.607-1.217a1.263,1.263,0,0,0,.821.452,2.615,2.615,0,0,0,1,1.672v.613l-3.058,1.186-.39-2.3Zm3.546,2.018.883,1.09-.794.564L16.215,30.2Zm3.316-3.379a1.94,1.94,0,0,1-3.879,0V24.892A5.893,5.893,0,0,0,19.549,24c.324.348.517.55.6.644C20.148,25.54,20.148,25.886,20.148,26.577Zm1.065-.818a.519.519,0,0,1-.346.49v-.979A.518.518,0,0,1,21.213,25.76Zm-5.73-1.754a2.725,2.725,0,1,1,5.451,0v.538l-.067-.012a.414.414,0,0,0-.086-.243c-.095-.136-.258-.3-.789-.869a.569.569,0,0,0-.729-.089,5.15,5.15,0,0,1-3.072.837.566.566,0,0,0-.606.37l-.1.02v-.552Zm.066,1.286v.957a.518.518,0,0,1-.346-.489A.531.531,0,0,1,15.549,25.292Zm-.3-3.869a.518.518,0,0,1-.18.393.532.532,0,0,1-.166.1v-.979A.519.519,0,0,1,15.254,21.423Zm-3-4.48a2.729,2.729,0,0,1,2.725,2.725v.538l-.067-.012a.436.436,0,0,0-.1-.266c-.1-.13-.274-.31-.773-.847a.569.569,0,0,0-.729-.089,5.138,5.138,0,0,1-3.1.835.572.572,0,0,0-.577.371l-.1.02v-.552h0A2.729,2.729,0,0,1,12.249,16.943ZM9.59,20.955v.958a.519.519,0,0,1-.346-.49A.531.531,0,0,1,9.59,20.955Zm-.641,4.316a.52.52,0,0,1,0,.978Zm-.033,1.723a1.261,1.261,0,0,0,.855-.5l.629,1.261h0a.563.563,0,0,0,.83.208l.039-.027.148.223-.39,2.3-3.06-1.185v-.655h0A2.629,2.629,0,0,0,8.916,26.994Zm-2.6,3.551L5.388,29.4v-.345a2.9,2.9,0,0,0,.935.153h0a2.658,2.658,0,0,0,.924-.168V29.4Zm.422,1.314-.132.2h-.58l-.132-.2.422-.3Zm.98-1.9.619.24L7.633,31.61l-.192-.136h0l-.6-.428ZM4.35,26.577V24.892A5.9,5.9,0,0,0,7.631,24c.321.345.517.55.6.644v1.933a1.94,1.94,0,0,1-3.879,0Zm.564,3.379.883,1.09-.6.428h0L5,31.61,4.3,30.2ZM2.866,38.5V33.249a.36.36,0,1,0-.719,0V38.5H.78a.061.061,0,0,1-.061-.061V32.8A1.79,1.79,0,0,1,1.756,31.18l1.867-.724L4.44,32.1h0a.563.563,0,0,0,.83.208l.039-.027.148.223-.8,4.748,0,.011a.576.576,0,0,0,.139.462l.715.786H2.866Zm2.509-1.213.764-4.514H6.5l.764,4.514-.943,1.037Zm6.543,1.153a.061.061,0,0,1-.061.061H10.491V33.249a.36.36,0,1,0-.719,0V38.5H7.13l.715-.786a.575.575,0,0,0,.139-.462l0-.011-.8-4.748.148-.223.039.027A.563.563,0,0,0,8.2,32.1h0l.818-1.639,1.868.723A1.787,1.787,0,0,1,11.918,32.8v5.641Zm.36-6.948a2.561,2.561,0,0,0-.587-.652l.407-2.4h.358l.407,2.4A2.563,2.563,0,0,0,12.278,31.5ZM14.785,38.5h0V33.249a.36.36,0,1,0-.719,0V38.5H12.7a.061.061,0,0,1-.061-.061V32.8a1.719,1.719,0,0,1,.42-1.152,1.936,1.936,0,0,1,.617-.471l1.867-.724.818,1.639h0a.563.563,0,0,0,.83.208l.039-.027.148.223-.8,4.748,0,.011a.576.576,0,0,0,.139.462l.715.786H14.785Zm2.509-1.213.764-4.514h.358l.764,4.514-.943,1.037Z" transform="translate(0 -16.224)" fill="#fc526e"/>
    </g>
  </g>
</svg>
