<svg xmlns="http://www.w3.org/2000/svg" width="23" height="23" viewBox="0 0 23 23">
  <g id="franchise" transform="translate(-4.75 -4.75)">
    <path id="Path_4876" data-name="Path 4876" d="M62.25,75.53v1.661a.34.34,0,1,0,.679,0V75.53a.34.34,0,0,0-.679,0Z" transform="translate(-46.34 -56.768)" fill="#fc526e"/>
    <path id="Path_4877" data-name="Path 4877" d="M101.09,42.179h.437V50.04a.34.34,0,1,0,.679,0v-8.2a.34.34,0,0,0-.34-.34h-.776a.34.34,0,1,0,0,.679Z" transform="translate(-77.367 -29.617)" fill="#fc526e"/>
    <path id="Path_4878" data-name="Path 4878" d="M20.09,50.38a.34.34,0,0,0,.34-.34V42.179h.437a.34.34,0,1,0,0-.679H20.09a.34.34,0,0,0-.34.34v8.2a.34.34,0,0,0,.34.34Z" transform="translate(-12.089 -29.617)" fill="#fc526e"/>
    <path id="Path_4879" data-name="Path 4879" d="M45.34,11.429H46.5a.34.34,0,1,0,0-.679H45.34a.34.34,0,1,0,0,.679Z" transform="translate(-32.438 -4.835)" fill="#fc526e"/>
    <path id="Path_4880" data-name="Path 4880" d="M10.47,89.97a.339.339,0,0,0-.318-.22H5.85a.339.339,0,0,0-.318.22l-.761,2.021a.34.34,0,0,0,.318.459h.122v3.463a.34.34,0,0,0,.34.34h4.9a.34.34,0,0,0,.34-.34V92.45h.122a.34.34,0,0,0,.318-.459Zm-4.384.459H9.917l.5,1.341H5.581Zm1.382,5.143v-1.65H8.535v1.65Zm2.644,0h-.9V93.583a.34.34,0,0,0-.34-.34H7.128a.34.34,0,0,0-.34.34v1.989h-.9V92.45h4.22Z" transform="translate(0 -68.502)" fill="#fc526e"/>
    <path id="Path_4881" data-name="Path 4881" d="M52.97,89.97a.339.339,0,0,0-.318-.22h-4.3a.339.339,0,0,0-.318.22l-.761,2.021a.34.34,0,0,0,.318.459h.122v3.463a.34.34,0,0,0,.34.34h4.9a.34.34,0,0,0,.34-.34V92.45h.122a.34.34,0,0,0,.318-.459Zm-4.384.459h3.831l.5,1.341H48.081Zm1.382,5.143v-1.65h1.068v1.65Zm2.644,0h-.9V93.583a.34.34,0,0,0-.34-.34H49.628a.34.34,0,0,0-.34.34v1.989h-.9V92.45h4.22Z" transform="translate(-34.251 -68.502)" fill="#fc526e"/>
    <path id="Path_4882" data-name="Path 4882" d="M96.23,91.991,95.47,89.97a.339.339,0,0,0-.318-.22h-4.3a.339.339,0,0,0-.318.22l-.761,2.021a.34.34,0,0,0,.318.459h.122v3.463a.34.34,0,0,0,.34.34h4.9a.34.34,0,0,0,.34-.34V92.45h.122a.34.34,0,0,0,.318-.459Zm-5.145-1.561h3.831l.5,1.341H90.581Zm1.382,5.143v-1.65h1.068v1.65Zm2.644,0h-.9V93.583a.34.34,0,0,0-.34-.34H92.128a.34.34,0,0,0-.34.34v1.989h-.9V92.45h4.22Z" transform="translate(-68.502 -68.502)" fill="#fc526e"/>
    <path id="Path_4883" data-name="Path 4883" d="M54.823,40.119a.34.34,0,0,0-.34-.34H49.34a.34.34,0,1,0,0,.679h5.143a.34.34,0,0,0,.34-.34Z" transform="translate(-35.661 -28.23)" fill="#fc526e"/>
    <path id="Path_4884" data-name="Path 4884" d="M78.169,47.031H75.84a.34.34,0,0,0-.34.34v1.747a.34.34,0,0,0,.34.34h2.329a.34.34,0,0,0,.34-.34V47.371A.34.34,0,0,0,78.169,47.031Zm-.34,1.747h-1.65V47.71h1.65Z" transform="translate(-57.018 -34.075)" fill="#fc526e"/>
    <path id="Path_4885" data-name="Path 4885" d="M39.669,47.031H37.34a.34.34,0,0,0-.34.34v1.747a.34.34,0,0,0,.34.34h2.329a.34.34,0,0,0,.34-.34V47.371A.34.34,0,0,0,39.669,47.031Zm-.34,1.747h-1.65V47.71h1.65Z" transform="translate(-25.991 -34.075)" fill="#fc526e"/>
    <path id="Path_4886" data-name="Path 4886" d="M27.332,10.593v5.5H27.09a.34.34,0,0,0-.34.34V17.6a.34.34,0,0,0,.34.34H40.87a.34.34,0,0,0,.34-.34V16.433a.34.34,0,0,0-.34-.34h-.243v-5.5a1.323,1.323,0,0,0,.582-1.1V8.734a.341.341,0,0,0-.021-.118L39.836,4.971a.339.339,0,0,0-.319-.221H28.442a.339.339,0,0,0-.319.221L26.771,8.616a.341.341,0,0,0-.021.118V9.5A1.323,1.323,0,0,0,27.332,10.593Zm1.386-1.519V9.5a.645.645,0,1,1-1.289,0V9.074Zm1.969,0V9.5a.645.645,0,1,1-1.289,0V9.074Zm1.969,0V9.5a.645.645,0,1,1-1.289,0V9.074Zm1.968,0V9.5a.645.645,0,0,1-1.289,0V9.074Zm1.969,0V9.5a.645.645,0,1,1-1.289,0V9.074Zm1.969,0V9.5a.645.645,0,1,1-1.289,0V9.074Zm1.969,0V9.5a.645.645,0,1,1-1.289,0V9.074Zm0,8.184h-13.1v-.485h13.1ZM34.8,16.094h-1.65V13.636H34.8Zm5.143,0H35.484V13.3a.34.34,0,0,0-.34-.34H32.815a.34.34,0,0,0-.34.34v2.8H28.012V10.818c.021,0,.041,0,.062,0a1.32,1.32,0,0,0,.984-.442,1.318,1.318,0,0,0,1.969,0,1.318,1.318,0,0,0,1.969,0,1.318,1.318,0,0,0,1.968,0,1.318,1.318,0,0,0,1.969,0,1.318,1.318,0,0,0,1.969,0,1.32,1.32,0,0,0,.984.442c.021,0,.042,0,.062,0ZM28.679,5.429h10.6l1.1,2.965h-12.8Z" transform="translate(-17.73)" fill="#fc526e"/>
  </g>
</svg>
