<svg xmlns="http://www.w3.org/2000/svg" width="20.422" height="20.42" viewBox="0 0 20.422 20.42">
  <path id="Frenchise" d="M18.044,12.939v3.646a.731.731,0,0,1-.729.729H13.668a.731.731,0,0,1-.729-.729V12.939a.731.731,0,0,1,.729-.729h3.646A.731.731,0,0,1,18.044,12.939Zm-5.1,6.564h5.1V18.044h-5.1Zm9.349-9.444a.727.727,0,0,1-.6.314,1.175,1.175,0,0,0-.729.226V21.691a.731.731,0,0,1-.729.729H4.188a.731.731,0,0,1-.729-.729V10.6a1.175,1.175,0,0,0-.729-.226.727.727,0,0,1-.6-.314.718.718,0,0,1-.087-.664l1.415-3.88V2.729A.731.731,0,0,1,4.188,2H20.232a.731.731,0,0,1,.729.729V5.515l1.415,3.88a.718.718,0,0,1-.088.664Zm-13.725,5.8H7.1v1.459H8.563ZM19.5,11.116c-.066,0-.117.015-.182.015a2.635,2.635,0,0,1-1.583-.5,1.335,1.335,0,0,0-1.59,0,2.75,2.75,0,0,1-3.151,0,1.269,1.269,0,0,0-.795-.263,1.206,1.206,0,0,0-.788.263,2.761,2.761,0,0,1-3.158,0,1.206,1.206,0,0,0-.788-.263,1.269,1.269,0,0,0-.795.263,2.61,2.61,0,0,1-1.575.5c-.066,0-.117-.015-.182-.015v9.845H6.375V12.939A.731.731,0,0,1,7.1,12.21H11.48a.731.731,0,0,1,.729.729v8.022H19.5Zm0-7.657H4.917V4.917H19.5Z" transform="translate(-1.998 -2)" fill="#fff"/>
</svg>
