<svg xmlns="http://www.w3.org/2000/svg" width="38.917" height="35.673" viewBox="0 0 38.917 35.673">
  <g id="Group_6598" data-name="Group 6598" transform="translate(0 -2)">
    <g id="Group_6594" data-name="Group 6594" transform="translate(0 14.487)">
      <path id="Path_8875" data-name="Path 8875" d="M28.3,32.887a3.234,3.234,0,0,1-.827-.107L2.4,26.065A3.273,3.273,0,0,1,.107,22.093L3.27,10.3a.811.811,0,0,1,1.566.418L1.675,22.508A1.646,1.646,0,0,0,2.826,24.5L27.89,31.212a1.614,1.614,0,0,0,1.973-1.142l1.266-4.693A.811.811,0,0,1,32.7,25.8l-1.265,4.686a3.239,3.239,0,0,1-3.131,2.4Z" transform="translate(0 -9.701)" fill="#919294"/>
    </g>
    <g id="Group_6595" data-name="Group 6595" transform="translate(6.486 2)">
      <path id="Path_8876" data-name="Path 8876" d="M33.187,27.944H7.243A3.246,3.246,0,0,1,4,24.7V5.243A3.246,3.246,0,0,1,7.243,2H33.187A3.246,3.246,0,0,1,36.43,5.243V24.7A3.246,3.246,0,0,1,33.187,27.944ZM7.243,3.622A1.624,1.624,0,0,0,5.622,5.243V24.7a1.624,1.624,0,0,0,1.622,1.622H33.187A1.624,1.624,0,0,0,34.809,24.7V5.243a1.624,1.624,0,0,0-1.622-1.622Z" transform="translate(-4 -2)" fill="#919294"/>
    </g>
    <g id="Group_6596" data-name="Group 6596" transform="translate(11.35 6.865)">
      <path id="Path_8877" data-name="Path 8877" d="M10.243,11.486a3.243,3.243,0,1,1,3.243-3.243A3.246,3.246,0,0,1,10.243,11.486Zm0-4.865a1.622,1.622,0,1,0,1.622,1.622A1.624,1.624,0,0,0,10.243,6.622Z" transform="translate(-7 -5)" fill="#919294"/>
    </g>
    <g id="Group_6597" data-name="Group 6597" transform="translate(6.599 10.999)">
      <path id="Path_8878" data-name="Path 8878" d="M4.881,22.76a.81.81,0,0,1-.574-1.383l7.658-7.658a2.492,2.492,0,0,1,3.439,0L17.684,16,24,8.426a2.436,2.436,0,0,1,1.852-.876h.018a2.431,2.431,0,0,1,1.847.848l8.481,9.894a.811.811,0,0,1-1.231,1.056L26.481,9.454a.8.8,0,0,0-.616-.282.861.861,0,0,0-.623.292l-6.88,8.255a.808.808,0,0,1-.587.29.78.78,0,0,1-.61-.237l-2.907-2.907a.833.833,0,0,0-1.146,0L5.453,22.523a.808.808,0,0,1-.572.237Z" transform="translate(-4.07 -7.55)" fill="#919294"/>
    </g>
  </g>
</svg>
