<svg xmlns="http://www.w3.org/2000/svg" width="23" height="23" viewBox="0 0 23 23">
  <g id="inventory" transform="translate(0)">
    <path id="Path_8850" data-name="Path 8850" d="M35.71,92.081H32.742V88.742h1.113V88H32v4.822h4.452V90.6H35.71Zm0,0" transform="translate(-30.516 -83.919)" fill="#fc526e"/>
    <path id="Path_8851" data-name="Path 8851" d="M59.348,84.679l-.48-.48-.525.525,1,1,2.859-2.859-.525-.525Zm0,0" transform="translate(-55.638 -78.526)" fill="#fc526e"/>
    <path id="Path_8852" data-name="Path 8852" d="M289.855,384a1.855,1.855,0,1,0,1.855,1.855A1.857,1.857,0,0,0,289.855,384Zm0,2.968a1.113,1.113,0,1,1,1.113-1.113A1.114,1.114,0,0,1,289.855,386.968Zm0,0" transform="translate(-274.645 -366.194)" fill="#fc526e"/>
    <path id="Path_8853" data-name="Path 8853" d="M21.948,2.231,17.9,1.42,16.218,8.875,8.162,7.263V0H2.444L0,2.443v7.944H4.088L3.036,15.231a1.212,1.212,0,0,0-.958.9l-.188.752a1.149,1.149,0,0,0,.9,1.407l9.093,1.684a3.338,3.338,0,1,0,6.3-1.808l1.863-8.2L18.864,7.61l.724-3.166,1.764.353a1.3,1.3,0,0,0,.257.026h.082a1.309,1.309,0,0,0,.257-2.592ZM9.868,8.361l1.125.225-.5,1.741L9.37,10.1Zm1.855.371,1.125.225-.5,1.741-1.125-.225Zm-9.5-7.466v.959H1.267ZM.742,2.968H2.968V.742H7.42v8.9H.742Zm7.419,7.419V8.02l.977.2-.7,2.457,4.439.888.7-2.457,2.477.5-1.529,6.794a3.331,3.331,0,0,0-1.5.746L3.782,15.291l1.066-4.9ZM2.6,17.16a.4.4,0,0,1,.012-.1l.188-.752a.48.48,0,0,1,.551-.349l9.1,1.821a3.312,3.312,0,0,0-.549,1.44L2.929,17.559a.407.407,0,0,1-.332-.4Zm12.613,5.1a2.6,2.6,0,1,1,2.6-2.6A2.6,2.6,0,0,1,15.21,22.258Zm1.573-5.54.486-2.127.93.186-.585,2.574A3.375,3.375,0,0,0,16.783,16.717Zm1.264-5.533.926.185-.61,2.683-.929-.186Zm1.223-1.12-.132.582-.925-.185L18.6,8.744Zm-3.186,6.379a3.318,3.318,0,0,0-.783-.115L18.044,4.136l.815.163ZM21.691,4.081h-.082A.558.558,0,0,1,21.5,4.07l-3.29-.658.252-1.122,3.342.669a.567.567,0,0,1-.11,1.122Zm0,0" fill="#fc526e"/>
  </g>
</svg>
