<svg xmlns="http://www.w3.org/2000/svg" width="21.738" height="23" viewBox="0 0 21.738 23">
  <g id="checklists" transform="translate(-7.369 -5.084)">
    <path id="Path_8831" data-name="Path 8831" d="M50.752,23.92a.33.33,0,0,1-.154-.037l-5.1-2.458a.353.353,0,0,1-.2-.316v-5.5a.356.356,0,0,1,.165-.3.35.35,0,0,1,.319-.017l5.122,2.455a.353.353,0,0,1,.2.316v5.5a.353.353,0,0,1-.165.285.37.37,0,0,1-.188.068Zm-4.757-3.042L50.4,23V18.292l-4.4-2.123Z" transform="translate(-27.138 -7.283)" fill="#fc526e"/>
    <path id="Path_8832" data-name="Path 8832" d="M50.752,12.226a.367.367,0,0,1-.154-.034L45.5,9.734a.352.352,0,0,1,0-.635l5.121-2.455a.356.356,0,0,1,.3,0L56.047,9.1a.353.353,0,0,1,.2.319.344.344,0,0,1-.219.316l-5.122,2.455A.367.367,0,0,1,50.752,12.226Zm-4.3-2.811,4.3,2.069,4.3-2.063-4.3-2.069Z" transform="translate(-27.138 -1.092)" fill="#fc526e"/>
    <path id="Path_8833" data-name="Path 8833" d="M63.573,23.907a.37.37,0,0,1-.188-.054.353.353,0,0,1-.165-.285V18.057a.35.35,0,0,1,.2-.316l5.121-2.461a.35.35,0,0,1,.339.017.356.356,0,0,1,.165.3v5.5a.353.353,0,0,1-.2.316L63.726,23.87A.33.33,0,0,1,63.573,23.907Zm.353-5.628v4.715l4.4-2.128V16.157Z" transform="translate(-39.96 -7.27)" fill="#fc526e"/>
    <path id="Path_8834" data-name="Path 8834" d="M54.678,14.138a.353.353,0,0,1-.137-.66l5.122-2.455a.353.353,0,0,1,.285.634l-5.122,2.455A.376.376,0,0,1,54.678,14.138Z" transform="translate(-33.62 -4.241)" fill="#fc526e"/>
    <path id="Path_8835" data-name="Path 8835" d="M53.149,26.887A.376.376,0,0,1,53,26.853l-1.508-.726a.353.353,0,1,1,.3-.634l1.511.726a.353.353,0,0,1-.154.669Z" transform="translate(-31.405 -14.568)" fill="#fc526e"/>
    <path id="Path_8836" data-name="Path 8836" d="M26.609,10.244H22.341A.35.35,0,0,1,22,9.9V6.708a.353.353,0,0,1,.353-.353h1.6a2.615,2.615,0,0,1,4.592.2.353.353,0,0,1-.632.313,1.912,1.912,0,0,0-3.44,0,.347.347,0,0,1-.316.2H22.706V9.539h3.9a.353.353,0,0,1,0,.706Z" transform="translate(-10.468)" fill="#fc526e"/>
    <path id="Path_8837" data-name="Path 8837" d="M23.246,34.46H7.72a.35.35,0,0,1-.35-.35V14.358A.35.35,0,0,1,7.72,14h4.165a.353.353,0,1,1,0,.7H8.072V33.763H23.246A1.454,1.454,0,0,0,24.7,32.309V24.072a.353.353,0,1,1,.7,0V32.3a2.16,2.16,0,0,1-2.157,2.157Z" transform="translate(0 -6.375)" fill="#fc526e"/>
    <path id="Path_8838" data-name="Path 8838" d="M18.566,42.723h-.014a.35.35,0,0,1-.285-.154L17.5,41.454a.353.353,0,1,1,.569-.4l.5.728,1.659-2.023a.353.353,0,1,1,.543.447l-1.932,2.387A.361.361,0,0,1,18.566,42.723Z" transform="translate(-7.173 -24.702)" fill="#fc526e"/>
    <path id="Path_8839" data-name="Path 8839" d="M18.572,55.07h-.014a.358.358,0,0,1-.285-.154L17.505,53.8a.353.353,0,1,1,.569-.4l.5.728L20.234,52.1a.358.358,0,1,1,.563.441l-1.952,2.387a.356.356,0,0,1-.273.137Z" transform="translate(-7.179 -33.544)" fill="#fc526e"/>
    <path id="Path_8840" data-name="Path 8840" d="M18.572,67.363h-.014a.347.347,0,0,1-.285-.151L17.505,66.1a.353.353,0,1,1,.569-.4l.5.728L20.234,64.4a.353.353,0,1,1,.543.447l-1.952,2.387a.356.356,0,0,1-.253.128Z" transform="translate(-7.179 -42.332)" fill="#fc526e"/>
    <path id="Path_8841" data-name="Path 8841" d="M38.253,48.783H33.322a.353.353,0,0,1,0-.7h4.931a.353.353,0,0,1,0,.7Z" transform="translate(-18.339 -30.762)" fill="#fc526e"/>
    <path id="Path_8842" data-name="Path 8842" d="M40.575,59.976H33.243a.353.353,0,0,1,0-.706h7.332a.353.353,0,1,1,0,.706Z" transform="translate(-18.259 -38.768)" fill="#fc526e"/>
    <path id="Path_8843" data-name="Path 8843" d="M40.655,71.169H33.322a.353.353,0,0,1,0-.7h7.332a.353.353,0,1,1,0,.7Z" transform="translate(-18.339 -46.778)" fill="#fc526e"/>
  </g>
</svg>
