<svg xmlns="http://www.w3.org/2000/svg" width="20.42" height="20.42" viewBox="0 0 20.42 20.42">
  <path id="Inventory_Management" data-name="Inventory Management" d="M13.181,2.991a5.37,5.37,0,0,0-2.2.461c-1.043.5-6.842,3.4-6.842,3.4l7.728,3.864a3.559,3.559,0,0,0,2.7,0l7.8-3.828S17.15,4.248,15.52,3.452a5.29,5.29,0,0,0-2.339-.461ZM3.006,8.663v7.871a4.127,4.127,0,0,0,2.162,3.474l6.913,3.4V13.094a4.93,4.93,0,0,1-1.241-.39l-7.2-3.58a2.194,2.194,0,0,1-.638-.461Zm20.419,0a2.19,2.19,0,0,1-.638.461l-7.2,3.58a4.934,4.934,0,0,1-1.241.39V23.411l6.913-3.4a4.128,4.128,0,0,0,2.162-3.474Z" transform="translate(-3.006 -2.99)" fill="#fff"/>
</svg>
