<svg xmlns="http://www.w3.org/2000/svg" xmlns:xlink="http://www.w3.org/1999/xlink" width="22.742" height="22.742" viewBox="0 0 22.742 22.742">
  <defs>
    <clipPath id="clip-path">
      <path id="path2959" d="M0-682.665H22.742v22.742H0Z" transform="translate(0 682.665)"/>
    </clipPath>
  </defs>
  <g id="g2949" transform="translate(0 682.665)">
    <g id="g2951" transform="translate(5.358 -670.576)">
      <path id="path2953" d="M0-78.121v-2.692H5.384v2.692" transform="translate(0 80.813)" fill="none" stroke="#fc526e" stroke-linecap="round" stroke-linejoin="round" stroke-width="0.8"/>
    </g>
    <g id="g2955" transform="translate(0 -682.665)">
      <g id="g2957" clip-path="url(#clip-path)">
        <g id="g2963" transform="translate(11.909 9.845)">
          <path id="path2965" d="M-62.5-31.248a1.077,1.077,0,0,1-1.077,1.077,1.077,1.077,0,0,1-1.077-1.077,1.077,1.077,0,0,1,1.077-1.077A1.077,1.077,0,0,1-62.5-31.248Z" transform="translate(64.651 32.325)" fill="none" stroke="#fc526e" stroke-linecap="round" stroke-linejoin="round" stroke-width="0.8"/>
        </g>
        <g id="g2967" transform="translate(12.986 11.999)">
          <path id="path2969" d="M0,0V2.782" fill="none" stroke="#fc526e" stroke-linecap="round" stroke-linejoin="round" stroke-width="0.8"/>
        </g>
        <g id="g2971" transform="translate(15.229 9.845)">
          <path id="path2973" d="M-62.5-31.248a1.077,1.077,0,0,1-1.077,1.077,1.077,1.077,0,0,1-1.077-1.077,1.077,1.077,0,0,1,1.077-1.077A1.077,1.077,0,0,1-62.5-31.248Z" transform="translate(64.651 32.325)" fill="none" stroke="#fc526e" stroke-linecap="round" stroke-linejoin="round" stroke-width="0.8"/>
        </g>
        <g id="g2975" transform="translate(16.306 11.999)">
          <path id="path2977" d="M0,0V2.782" transform="translate(0)" fill="none" stroke="#fc526e" stroke-linecap="round" stroke-linejoin="round" stroke-width="0.8"/>
        </g>
        <g id="g2979" transform="translate(18.46 7.377)">
          <path id="path2981" d="M0-214.845v-7.4" transform="translate(0 222.249)" fill="none" stroke="#fc526e" stroke-linecap="round" stroke-linejoin="round" stroke-width="0.8"/>
        </g>
        <g id="g2983" transform="translate(19.806 7.377)">
          <path id="path2985" d="M0,0V7.4" transform="translate(0 0)" fill="none" stroke="#fc526e" stroke-linecap="round" stroke-linejoin="round" stroke-width="0.8"/>
        </g>
        <g id="g2987" transform="translate(4.282 7.377)">
          <path id="path2989" d="M0-214.845v-7.4" transform="translate(0 222.249)" fill="none" stroke="#fc526e" stroke-linecap="round" stroke-linejoin="round" stroke-width="0.8"/>
        </g>
        <g id="g2991" transform="translate(2.935 7.377)">
          <path id="path2993" d="M0,0V7.4" transform="translate(0 0)" fill="none" stroke="#fc526e" stroke-linecap="round" stroke-linejoin="round" stroke-width="0.8"/>
        </g>
        <g id="g2995" transform="translate(1.679 0.333)">
          <path id="path2997" d="M-127.854,0h13.541l1.436,2.378v1.75H-132.26V2.378L-130.824,0h1.414" transform="translate(132.26)" fill="none" stroke="#fc526e" stroke-linecap="round" stroke-linejoin="round" stroke-width="0.8"/>
        </g>
        <g id="g2999" transform="translate(1.679 4.461)">
          <path id="path3001" d="M-112.494,0V1.077a1.938,1.938,0,0,1-1.938,1.938,1.938,1.938,0,0,1-1.938-1.938V0" transform="translate(116.37)" fill="none" stroke="#fc526e" stroke-linecap="round" stroke-linejoin="round" stroke-width="0.8"/>
        </g>
        <g id="g3003" transform="translate(5.556 4.461)">
          <path id="path3005" d="M-112.494,0V1.077a1.938,1.938,0,0,1-1.938,1.938,1.938,1.938,0,0,1-1.938-1.938V0" transform="translate(116.37)" fill="none" stroke="#fc526e" stroke-linecap="round" stroke-linejoin="round" stroke-width="0.8"/>
        </g>
        <g id="g3007" transform="translate(9.432 4.461)">
          <path id="path3009" d="M-112.494,0V1.077a1.938,1.938,0,0,1-1.938,1.938,1.938,1.938,0,0,1-1.938-1.938V0" transform="translate(116.37)" fill="none" stroke="#fc526e" stroke-linecap="round" stroke-linejoin="round" stroke-width="0.8"/>
        </g>
        <g id="g3011" transform="translate(13.309 4.461)">
          <path id="path3013" d="M-112.494,0V1.077a1.938,1.938,0,0,1-1.938,1.938,1.938,1.938,0,0,1-1.938-1.938V0" transform="translate(116.37)" fill="none" stroke="#fc526e" stroke-linecap="round" stroke-linejoin="round" stroke-width="0.8"/>
        </g>
        <g id="g3015" transform="translate(17.186 4.461)">
          <path id="path3017" d="M-112.494,0V1.077a1.938,1.938,0,0,1-1.938,1.938,1.938,1.938,0,0,1-1.938-1.938V0" transform="translate(116.37)" fill="none" stroke="#fc526e" stroke-linecap="round" stroke-linejoin="round" stroke-width="0.8"/>
        </g>
        <g id="g3019" transform="translate(1.679 2.711)">
          <path id="path3021" d="M-562.469,0h-19.383" transform="translate(581.852 0)" fill="none" stroke="#fc526e" stroke-linecap="round" stroke-linejoin="round" stroke-width="0.8"/>
        </g>
        <path id="path3023" d="M69.79-237.624H50.407v-1.346H69.79Z" transform="translate(-48.727 253.751)" fill="none" stroke="#fc526e" stroke-linecap="round" stroke-linejoin="round" stroke-width="0.8"/>
        <g id="g3025" transform="translate(1.679 22.408)">
          <path id="path3027" d="M0,0H19.383" fill="none" stroke="#fc526e" stroke-linecap="round" stroke-linejoin="round" stroke-width="0.8"/>
        </g>
        <g id="g3029" transform="translate(2.745 16.127)">
          <path id="path3031" d="M0-182.282v-6.282" transform="translate(0 188.564)" fill="none" stroke="#fc526e" stroke-linecap="round" stroke-linejoin="round" stroke-width="0.8"/>
        </g>
        <g id="g3033" transform="translate(19.997 19.391)">
          <path id="path3035" d="M0,0V3.018" fill="none" stroke="#fc526e" stroke-linecap="round" stroke-linejoin="round" stroke-width="0.8"/>
        </g>
        <g id="g3037" transform="translate(19.997 16.127)">
          <path id="path3039" d="M0,0V1.707" fill="none" stroke="#fc526e" stroke-linecap="round" stroke-linejoin="round" stroke-width="0.8"/>
        </g>
        <g id="g3041" transform="translate(2.745 19.391)">
          <path id="path3043" d="M0,0V3.018" transform="translate(0)" fill="none" stroke="#fc526e" stroke-linecap="round" stroke-linejoin="round" stroke-width="0.8"/>
        </g>
      </g>
    </g>
  </g>
</svg>
