<svg xmlns="http://www.w3.org/2000/svg" xmlns:xlink="http://www.w3.org/1999/xlink" width="22.815" height="23" viewBox="0 0 22.815 23">
  <defs>
    <clipPath id="clip-path">
      <path id="path6357" d="M0-682.665H22.815v23H0Z" transform="translate(0 682.665)"/>
    </clipPath>
  </defs>
  <g id="g6351" transform="translate(0 682.665)">
    <g id="g6353" transform="translate(0 -682.665)">
      <g id="g6355" clip-path="url(#clip-path)">
        <g id="g6361" transform="translate(1.749 3.281)">
          <path id="path6363" d="M-47.826,0A7.717,7.717,0,0,0-49.48,4.789h7.651V12.5A7.58,7.58,0,0,0-37.07,10.83" transform="translate(49.48)" fill="none" stroke="#fc526e" stroke-linecap="round" stroke-linejoin="round" stroke-width="0.8"/>
        </g>
        <g id="g6365" transform="translate(4.311 0.357)">
          <path id="path6367" d="M0-56.046A7.586,7.586,0,0,1,5.089-58a7.682,7.682,0,0,1,7.651,7.713,7.782,7.782,0,0,1-.164,1.592" transform="translate(0 58)" fill="none" stroke="#fc526e" stroke-linecap="round" stroke-linejoin="round" stroke-width="0.8"/>
        </g>
        <g id="g6369" transform="translate(9.406 18.466)">
          <path id="path6371" d="M-83.633,0h-2.213a.681.681,0,0,0-.678.684V4.177h3.57V.684A.681.681,0,0,0-83.633,0Z" transform="translate(86.525)" fill="none" stroke="#fc526e" stroke-linecap="round" stroke-linejoin="round" stroke-width="0.8"/>
        </g>
        <g id="g6373" transform="translate(14.158 9.663)">
          <path id="path6375" d="M-103.242-299.735v2.53h-3.57v-12.3a.681.681,0,0,1,.678-.684h2.213a.681.681,0,0,1,.678.684v8.419" transform="translate(106.812 310.186)" fill="none" stroke="#fc526e" stroke-linecap="round" stroke-linejoin="round" stroke-width="0.8"/>
        </g>
        <g id="g6377" transform="translate(18.911 14.762)">
          <path id="path6379" d="M-83.632,0h-2.213a.681.681,0,0,0-.678.684v7.2h3.57V.684A.681.681,0,0,0-83.632,0Z" transform="translate(86.524)" fill="none" stroke="#fc526e" stroke-linecap="round" stroke-linejoin="round" stroke-width="0.8"/>
        </g>
        <g id="g6381" transform="translate(0.334 9.496)">
          <path id="path6383" d="M-221.282-221.233v-7.714h-7.651A7.683,7.683,0,0,0-221.282-221.233Z" transform="translate(228.933 228.946)" fill="none" stroke="#fc526e" stroke-linecap="round" stroke-linejoin="round" stroke-width="0.8"/>
        </g>
        <g id="g6385" transform="translate(0.789 15.628)">
          <path id="path6387" d="M-160.6,0l-1.744,3.811h-3.809" transform="translate(166.156)" fill="none" stroke="#fc526e" stroke-linecap="round" stroke-linejoin="round" stroke-width="0.8"/>
        </g>
        <g id="g6389" transform="translate(0.789 17.989)">
          <path id="path6391" d="M0,0H2.777" fill="none" stroke="#fc526e" stroke-linecap="round" stroke-linejoin="round" stroke-width="0.8"/>
        </g>
        <g id="g6393" transform="translate(14.078 2.148)">
          <path id="path6395" d="M0-114.271l2.218-3.984H6.934" transform="translate(0 118.256)" fill="none" stroke="#fc526e" stroke-linecap="round" stroke-linejoin="round" stroke-width="0.8"/>
        </g>
        <g id="g6397" transform="translate(17.72 0.806)">
          <path id="path6399" d="M-95.227,0H-98.52" transform="translate(98.52)" fill="none" stroke="#fc526e" stroke-linecap="round" stroke-linejoin="round" stroke-width="0.8"/>
        </g>
        <g id="g6401" transform="translate(19.385 7.926)">
          <path id="path6403" d="M-70.225,0h-2.428" transform="translate(72.653)" fill="none" stroke="#fc526e" stroke-linecap="round" stroke-linejoin="round" stroke-width="0.8"/>
        </g>
        <g id="g6405" transform="translate(19.385 9.378)">
          <path id="path6407" d="M-70.225,0h-2.428" transform="translate(72.653)" fill="none" stroke="#fc526e" stroke-linecap="round" stroke-linejoin="round" stroke-width="0.8"/>
        </g>
        <g id="g6409" transform="translate(19.385 10.83)">
          <path id="path6411" d="M-70.225,0h-2.428" transform="translate(72.653)" fill="none" stroke="#fc526e" stroke-linecap="round" stroke-linejoin="round" stroke-width="0.8"/>
        </g>
      </g>
    </g>
  </g>
</svg>
