<svg xmlns="http://www.w3.org/2000/svg" width="20.729" height="22.74" viewBox="0 0 20.729 22.74">
  <path id="log-data" d="M51.639,28.625H48.9a.247.247,0,0,0-.247.247v2.742a.247.247,0,0,0,.247.247h2.742a.247.247,0,0,0,.247-.247V28.872A.247.247,0,0,0,51.639,28.625Zm-.247,2.742H49.145V29.119h2.247Zm-1.85-.949a.247.247,0,0,1,.35-.35l.193.193.561-.561a.247.247,0,0,1,.35.35l-.736.736a.247.247,0,0,1-.35,0Zm3.277-1.546a.247.247,0,0,1,.247-.247h3.213a.247.247,0,0,1,0,.494H53.066A.247.247,0,0,1,52.819,28.872Zm3.707,9.792a.247.247,0,0,1-.247.247H53.066a.247.247,0,1,1,0-.494h3.213A.247.247,0,0,1,56.526,38.664Zm-3.707-7.05a.247.247,0,0,1,.247-.247h6.953a.247.247,0,1,1,0,.494H53.066A.247.247,0,0,1,52.819,31.614Zm0-1.371A.247.247,0,0,1,53.066,30h6.953a.247.247,0,1,1,0,.494H53.066A.247.247,0,0,1,52.819,30.243Zm0,3.525a.247.247,0,0,1,.247-.247h3.213a.247.247,0,0,1,0,.494H53.066A.247.247,0,0,1,52.819,33.768Zm-1.18-.247H48.9a.247.247,0,0,0-.247.247V36.51a.247.247,0,0,0,.247.247h2.742a.247.247,0,0,0,.247-.247V33.768A.247.247,0,0,0,51.639,33.521Zm-.247,2.742H49.145V34.015h2.247Zm.247,2.154H48.9a.247.247,0,0,0-.247.247v2.742a.247.247,0,0,0,.247.247h2.742a.247.247,0,0,0,.247-.247V38.664A.247.247,0,0,0,51.639,38.417Zm-.247,2.742H49.145V38.911h2.247Zm10.645.422a.247.247,0,0,1,.247.247v2.2a.247.247,0,0,1-.247.247h0l-2.034,0a.247.247,0,0,1,0-.494h0l1.786,0V41.828A.247.247,0,0,1,62.037,41.581ZM67,30.889a.247.247,0,0,0,0-.35l-1.323-1.323a.247.247,0,0,0-.35,0l-3.039,3.039V26.247A.247.247,0,0,0,62.037,26H46.586a.247.247,0,0,0-.247.247V44.031a.247.247,0,0,0,.247.247H57.335a4.709,4.709,0,1,0,4.95-4.95V35.6Zm-1.5-1.148.973.973-7.112,7.112-1.416.442.442-1.416Zm.754,14.29a4.215,4.215,0,1,1-4.215-4.215A4.22,4.22,0,0,1,66.252,44.031Zm-4.462-4.7a4.675,4.675,0,0,0-1.795.46H53.066a.247.247,0,0,0,0,.494h6.125a4.75,4.75,0,0,0-.882.877H53.066a.247.247,0,1,0,0,.494h4.908a4.676,4.676,0,0,0-.639,2.131h-10.5V26.494H61.79v6.255l-2.143,2.143H53.066a.247.247,0,1,0,0,.494h6.087l-.877.877H53.066a.247.247,0,0,0,0,.494H57.9l-.567,1.814a.247.247,0,0,0,.31.31l1.924-.6a.248.248,0,0,0,.1-.061l2.125-2.125v3.234Z" transform="translate(-46.339 -26)" fill="#fc526e"/>
</svg>
