<svg xmlns="http://www.w3.org/2000/svg" width="24.532" height="22.999" viewBox="0 0 24.532 22.999">
  <g id="history" transform="translate(0.003 -2)">
    <path id="Path_11651" data-name="Path 11651" d="M31.272,21.283l4.6,3.45a.767.767,0,0,0,.92-1.227l-4.258-3.224V13.767a.767.767,0,1,0-1.533,0v6.9a.793.793,0,0,0,.272.617Z" transform="translate(-19.12 -6.784)" fill="#fc526e"/>
    <path id="Path_11652" data-name="Path 11652" d="M13.03,2A11.5,11.5,0,0,0,1.692,11.582L1.4,11.149a.768.768,0,1,0-1.273.859l1.533,2.3a.767.767,0,0,0,.56.341H2.3a.765.765,0,0,0,.54-.226l1.916-1.916A.767.767,0,1,0,3.67,11.421l-.475.479A9.966,9.966,0,1,1,13.03,23.464,9.433,9.433,0,0,1,5.222,19.57a.767.767,0,1,0-1.25.889A10.951,10.951,0,0,0,13.03,25a11.5,11.5,0,0,0,0-23Z" fill="#fc526e"/>
  </g>
</svg>
