<svg xmlns="http://www.w3.org/2000/svg" width="27.85" height="20.42" viewBox="0 0 27.85 20.42">
  <g id="Movement" transform="translate(-1 -5.004)">
    <path id="Path_13235" data-name="Path 13235" d="M28.85,11.5a.928.928,0,0,1-.269.659l-5.57,5.57a.929.929,0,0,1-1.587-.659V14.284H13.068a.928.928,0,0,1-.928-.928V9.642a.928.928,0,0,1,.928-.928h8.355V5.929a.928.928,0,0,1,1.587-.65l5.57,5.57A.928.928,0,0,1,28.85,11.5ZM16.782,16.14H8.427V13.355A.934.934,0,0,0,6.839,12.7l-5.57,5.57a.941.941,0,0,0,0,1.318l5.57,5.57a.928.928,0,0,0,.659.269.78.78,0,0,0,.353-.074.928.928,0,0,0,.576-.854V21.71h8.355a.928.928,0,0,0,.928-.928V17.069A.928.928,0,0,0,16.782,16.14Z" transform="translate(0)" fill="#fff"/>
  </g>
</svg>
