<svg xmlns="http://www.w3.org/2000/svg" width="18.95" height="22.74" viewBox="0 0 18.95 22.74">
  <g id="Group_6713" data-name="Group 6713" transform="translate(-43.06 -683)">
    <g id="bell" transform="translate(43.06 683)">
      <g id="Group_5897" data-name="Group 5897" transform="translate(7.58 0)">
        <path id="Path_8826" data-name="Path 8826" d="M13.316,3.961a.474.474,0,0,1-.474-.474V1.9a.948.948,0,0,0-1.9,0V3.487a.474.474,0,0,1-.948,0V1.9a1.9,1.9,0,0,1,3.79,0V3.487A.473.473,0,0,1,13.316,3.961Z" transform="translate(-10 0)" fill="#fc526e"/>
      </g>
      <g id="Group_5898" data-name="Group 5898" transform="translate(6.159 18.95)">
        <path id="Path_8827" data-name="Path 8827" d="M11.816,23.79A3.32,3.32,0,0,1,8.5,20.474a.474.474,0,1,1,.948,0,2.369,2.369,0,0,0,4.738,0,.474.474,0,1,1,.948,0A3.32,3.32,0,0,1,11.816,23.79Z" transform="translate(-8.5 -20)" fill="#fc526e"/>
      </g>
      <g id="Group_5899" data-name="Group 5899" transform="translate(0 2.843)">
        <path id="Path_8828" data-name="Path 8828" d="M19.529,20.055H3.421a1.421,1.421,0,0,1-.924-2.5,6.587,6.587,0,0,0,2.345-5.043V9.633a6.633,6.633,0,0,1,13.265,0v2.879a6.58,6.58,0,0,0,2.338,5.036,1.421,1.421,0,0,1-.916,2.508ZM11.475,3.948A5.691,5.691,0,0,0,5.79,9.633v2.879a7.527,7.527,0,0,1-2.673,5.76.474.474,0,0,0,.3.837H19.529a.474.474,0,0,0,.308-.834,7.533,7.533,0,0,1-2.677-5.763V9.633a5.691,5.691,0,0,0-5.685-5.685Z" transform="translate(-2 -3)" fill="#fc526e"/>
      </g>
    </g>
  </g>
</svg>
