<svg xmlns="http://www.w3.org/2000/svg" width="21.294" height="23" viewBox="0 0 21.294 23">
  <g id="shield" transform="translate(-18.986 0)">
    <path id="Path_8924" data-name="Path 8924" d="M38.446,23H35.077a1.012,1.012,0,0,1-1.011-1.011V19.073a15.756,15.756,0,0,1-1.6,1.158,16.316,16.316,0,0,1-3.669,1.78.577.577,0,0,1-.326,0,16.317,16.317,0,0,1-3.669-1.78,10.127,10.127,0,0,1-3.2-2.92c-1.935-3.32-2.617-11.928-2.617-13.523a.651.651,0,0,1,.312-.576A40.719,40.719,0,0,1,28.21.091,2.46,2.46,0,0,1,28.631,0a2.459,2.459,0,0,1,.421.091A50.078,50.078,0,0,1,36.9,2.676a.337.337,0,1,1-.281.612A49.457,49.457,0,0,0,28.882.743L28.631.677,28.38.743a39.031,39.031,0,0,0-8.72,3.039s0,0,0,.007c0,1.5.688,10.031,2.525,13.183a9.262,9.262,0,0,0,2.976,2.691,15.715,15.715,0,0,0,3.47,1.694,15.716,15.716,0,0,0,3.47-1.694,9.262,9.262,0,0,0,2.976-2.691l.021-.036h-.021a1.006,1.006,0,0,1-.632-.222c-.935,1.483-3.969,3.286-5.7,3.9a.337.337,0,0,1-.085.019h-.032a.336.336,0,0,1-.121-.023,16.211,16.211,0,0,1-4.825-2.9.337.337,0,1,1,.456-.5,15.9,15.9,0,0,0,4.154,2.59V10.871H21.772a18.628,18.628,0,0,0,1.577,5.422.337.337,0,1,1-.582.339C21.1,13.779,20.438,6.259,20.351,4.4a.337.337,0,0,1,.188-.318,45.317,45.317,0,0,1,8-2.685.338.338,0,0,1,.084-.013h.017a.338.338,0,0,1,.084.013,45.316,45.316,0,0,1,8,2.685.337.337,0,0,1,.188.318c-.015.315-.038.683-.069,1.08h.671c.065-.847.089-1.423.089-1.692a.077.077,0,0,0,0-.009.337.337,0,0,1,.363-.567.651.651,0,0,1,.312.576c0,.277-.024.856-.088,1.7a.337.337,0,0,1-.056.669H35.077a.337.337,0,0,0-.337.337V9.86a.337.337,0,0,0,.337.337h3.369a.337.337,0,0,0,.337-.337V7.454l-1.67,1.67a.337.337,0,0,1-.476,0L35.513,8a.337.337,0,0,1,.476-.476l.886.886,2.829-2.83a.337.337,0,0,1,.476.476l-.724.724V9.86a1.012,1.012,0,0,1-1.011,1.011H37.54c-.038.228-.077.454-.118.674h.71a.337.337,0,1,1,0,.674H35.077a.337.337,0,0,0-.337.337s0,3.409.005,3.428l0,.017a.337.337,0,0,0,.328.262h3.369a.337.337,0,0,0,.337-.337V13.518l-1.67,1.67a.337.337,0,0,1-.476,0l-1.124-1.124a.337.337,0,0,1,.476-.476l.886.886,2.829-2.83a.337.337,0,0,1,.476.476l-.724.724v3.08a1.012,1.012,0,0,1-1.011,1.011H35.862c-.067.133-.135.258-.2.375-.058.1-.123.2-.191.3h2.664a.337.337,0,1,1,0,.674H35.077a.337.337,0,0,0-.337.337v3.369a.337.337,0,0,0,.337.337h3.369a.337.337,0,0,0,.337-.337V19.583l-1.67,1.67a.337.337,0,0,1-.476,0l-1.124-1.124a.337.337,0,0,1,.476-.476l.886.886,2.83-2.83a.337.337,0,0,1,.476.476l-.724.724v3.08A1.012,1.012,0,0,1,38.446,23ZM28.968,10.871V19.8c1.829-.756,4.278-2.365,4.945-3.51.052-.09.1-.188.157-.291,0-.025,0-.051,0-.077V12.556a1.012,1.012,0,0,1,1.011-1.011h.288c.042-.219.083-.444.123-.674Zm7.083.674h.686c.041-.22.081-.445.119-.674h-.684c-.039.229-.08.454-.121.674ZM28.968,10.2h5.156a1.007,1.007,0,0,1-.058-.337V6.491A1.012,1.012,0,0,1,35.077,5.48h1.088c.025-.319.046-.62.061-.889a43.976,43.976,0,0,0-7.258-2.433Zm-7.309,0h6.635V2.159a43.983,43.983,0,0,0-7.259,2.433C21.109,5.924,21.316,8.059,21.659,10.2ZM37.633,3.8h0Z" transform="translate(0)" fill="#fc526e"/>
  </g>
</svg>
