<svg xmlns="http://www.w3.org/2000/svg" width="21.559" height="23" viewBox="0 0 21.559 23">
  <g id="box" transform="translate(-16.032 0.001)">
    <g id="Group_6588" data-name="Group 6588" transform="translate(16.032 -0.001)">
      <g id="Group_6587" data-name="Group 6587" transform="translate(0 0)">
        <path id="Path_8872" data-name="Path 8872" d="M37.4,5.074,26.958.033a.337.337,0,0,0-.293,0L16.222,5.074a.337.337,0,0,0-.19.3V17.621a.337.337,0,0,0,.19.3l10.443,5.041a.337.337,0,0,0,.293,0L37.4,17.924a.337.337,0,0,0,.19-.3V5.378A.337.337,0,0,0,37.4,5.074ZM26.812.711l9.668,4.667-2.8,1.353a.334.334,0,0,0-.057-.036l-9.6-4.635ZM23.257,2.44,32.911,7.1l-1.977.955L21.284,3.4Zm9.88,5.3v3.528l-1.847.892V8.631Zm3.781,9.67-9.769,4.716V10.63l2.33-1.125a.337.337,0,1,0-.293-.607l-2.374,1.146-.934-.451a.337.337,0,0,0-.293.607l.89.43V22.125l-9.769-4.716V5.914l7.439,3.591a.337.337,0,0,0,.293-.607L17.144,5.378l3.347-1.616,10.12,4.886,0,.006V12.7a.337.337,0,0,0,.483.3l2.521-1.217a.337.337,0,0,0,.19-.3V7.414l3.107-1.5Z" transform="translate(-16.032 0.001)" fill="#fc526e"/>
      </g>
    </g>
    <g id="Group_6590" data-name="Group 6590" transform="translate(17.47 15.329)">
      <g id="Group_6589" data-name="Group 6589" transform="translate(0)">
        <path id="Path_8873" data-name="Path 8873" d="M50.064,342.035l-1.532-.74a.337.337,0,1,0-.293.607l1.532.74a.337.337,0,0,0,.293-.607Z" transform="translate(-48.048 -341.261)" fill="#fc526e"/>
      </g>
    </g>
    <g id="Group_6592" data-name="Group 6592" transform="translate(17.472 13.731)">
      <g id="Group_6591" data-name="Group 6591" transform="translate(0)">
        <path id="Path_8874" data-name="Path 8874" d="M51.52,307.144l-2.941-1.42a.337.337,0,1,0-.293.607l2.941,1.42a.337.337,0,0,0,.293-.607Z" transform="translate(-48.096 -305.69)" fill="#fc526e"/>
      </g>
    </g>
  </g>
</svg>
