<svg xmlns="http://www.w3.org/2000/svg" width="36.318" height="38.745" viewBox="0 0 36.318 38.745">
  <g id="box" transform="translate(-16.032 0)">
    <g id="Group_7539" data-name="Group 7539" transform="translate(16.032 -0.001)">
      <g id="Group_7538" data-name="Group 7538" transform="translate(0 0)">
        <path id="Path_13208" data-name="Path 13208" d="M52.029,8.548,34.438.056a.568.568,0,0,0-.493,0L16.353,8.548a.568.568,0,0,0-.321.511V29.684a.568.568,0,0,0,.321.511l17.592,8.492a.568.568,0,0,0,.494,0L52.029,30.2a.568.568,0,0,0,.321-.511V9.06A.568.568,0,0,0,52.029,8.548ZM34.191,1.2,50.477,9.059l-4.721,2.279a.563.563,0,0,0-.1-.061L29.485,3.469ZM28.2,4.111l16.262,7.851L41.135,13.57,24.879,5.722Zm16.643,8.927v5.944l-3.111,1.5V14.54Zm6.369,16.289L34.759,37.272V17.908l3.925-1.9a.568.568,0,1,0-.494-1.022l-4,1.931-1.574-.76a.568.568,0,1,0-.494,1.022l1.5.724V37.272L17.167,29.328V9.964L29.7,16.013a.568.568,0,0,0,.493-1.022L17.9,9.059l5.638-2.722,17.049,8.23.008.01v6.81a.568.568,0,0,0,.814.511l4.246-2.05a.567.567,0,0,0,.321-.511V12.491l5.234-2.527V29.328Z" transform="translate(-16.032 0.001)" fill="#fff"/>
      </g>
    </g>
    <g id="Group_7541" data-name="Group 7541" transform="translate(18.455 25.824)">
      <g id="Group_7540" data-name="Group 7540">
        <path id="Path_13209" data-name="Path 13209" d="M51.444,342.564l-2.582-1.246a.568.568,0,0,0-.494,1.022l2.582,1.246a.568.568,0,0,0,.494-1.022Z" transform="translate(-48.048 -341.261)" fill="#fff"/>
      </g>
    </g>
    <g id="Group_7543" data-name="Group 7543" transform="translate(18.458 23.132)">
      <g id="Group_7542" data-name="Group 7542" transform="translate(0)">
        <path id="Path_13210" data-name="Path 13210" d="M53.864,308.138l-4.954-2.392a.568.568,0,1,0-.493,1.022l4.954,2.392a.568.568,0,0,0,.493-1.022Z" transform="translate(-48.096 -305.69)" fill="#fff"/>
      </g>
    </g>
  </g>
</svg>
