<svg xmlns="http://www.w3.org/2000/svg" width="23.438" height="20.42" viewBox="0 0 23.438 20.42">
  <path id="Product_Management" data-name="Product Management" d="M166.516,7.364l-.223.129v2.823l.873.5V8.332a.6.6,0,0,1,.3-.515l8.715-5.032-.867-.5-.3.172-8.468,4.889Zm4.723,2.293L179.659,4.8l-2.291-1.323-.3.172-8.124,4.692Zm4.383-.813a1.474,1.474,0,0,1,1.716-.272l.252.129c.167-.08.338-.149.512-.213l.086-.268a1.473,1.473,0,0,1,1.4-1.022h.662V5.824l-8.421,4.862v9.726l3.225-1.863-.118-.118a1.474,1.474,0,0,1-.272-1.714l.129-.254c-.078-.166-.149-.336-.211-.509l-.27-.088a1.472,1.472,0,0,1-1.021-1.4V13.5a1.472,1.472,0,0,1,1.021-1.4l.27-.088c.061-.172.133-.343.211-.509l-.129-.254a1.473,1.473,0,0,1,.272-1.714Zm-9.7-2.511.032-.017L174.122,1.6,171.44.049a.393.393,0,0,0-.407,0l-8.219,4.745L165.7,6.459Zm-3.494,9.333,8.217,4.745V10.686l-2.282-1.318v2.481a.6.6,0,0,1-.6.6.6.6,0,0,1-.343-.108L165.4,11.17a.589.589,0,0,1-.3-.513h0V7.487l-2.88-1.663v9.491A.394.394,0,0,0,162.424,15.667ZM185.658,13.5v.963a.279.279,0,0,1-.2.27l-.716.233a.278.278,0,0,0-.186.2,4.6,4.6,0,0,1-.478,1.152.275.275,0,0,0-.007.272l.341.673a.28.28,0,0,1-.053.329l-.681.681a.279.279,0,0,1-.329.051l-.671-.341a.281.281,0,0,0-.272.008,4.653,4.653,0,0,1-1.154.478.276.276,0,0,0-.2.186l-.233.716a.277.277,0,0,1-.27.2h-.963a.281.281,0,0,1-.27-.2l-.231-.716a.28.28,0,0,0-.2-.186,4.619,4.619,0,0,1-1.154-.478.279.279,0,0,0-.272-.008l-.671.341a.279.279,0,0,1-.329-.051l-.681-.681a.277.277,0,0,1-.053-.329l.341-.673a.275.275,0,0,0-.008-.272,4.6,4.6,0,0,1-.476-1.152.281.281,0,0,0-.188-.2l-.716-.233a.281.281,0,0,1-.2-.27V13.5a.281.281,0,0,1,.2-.27l.716-.233a.277.277,0,0,0,.188-.2,4.6,4.6,0,0,1,.476-1.152.273.273,0,0,0,.008-.272l-.341-.671a.28.28,0,0,1,.053-.331l.681-.681a.279.279,0,0,1,.329-.051l.671.341a.275.275,0,0,0,.272-.008,4.619,4.619,0,0,1,1.154-.478.28.28,0,0,0,.2-.186l.231-.716a.281.281,0,0,1,.27-.2h.963a.277.277,0,0,1,.27.2l.233.716a.276.276,0,0,0,.2.186,4.653,4.653,0,0,1,1.154.478.273.273,0,0,0,.272.008l.671-.341a.279.279,0,0,1,.329.051l.681.681a.283.283,0,0,1,.053.331l-.341.671a.275.275,0,0,0,.007.272,4.6,4.6,0,0,1,.478,1.152.274.274,0,0,0,.186.2l.716.233a.279.279,0,0,1,.2.27Zm-3.1.483a2.487,2.487,0,1,0-2.487,2.485A2.487,2.487,0,0,0,182.561,13.979Z" transform="translate(-162.221 0.008)" fill="#fff" fill-rule="evenodd"/>
</svg>
