<svg xmlns="http://www.w3.org/2000/svg" width="23" height="23" viewBox="0 0 23 23">
  <path id="sales-marketing" d="M31.673,18.954H28.938a.326.326,0,0,0-.326.326v11a.326.326,0,0,0,.326.326h2.735A.326.326,0,0,0,32,30.277v-11A.326.326,0,0,0,31.673,18.954Zm-.326,11H29.264V19.606h2.083ZM16.794,20.317a.326.326,0,0,0-.326.326v9.634a.326.326,0,0,0,.326.326h2.735a.326.326,0,0,0,.326-.326V20.643a.326.326,0,0,0-.326-.326ZM19.2,29.951H17.12V20.969H19.2ZM22.866,22.8a.326.326,0,0,0-.326.326v7.152a.326.326,0,0,0,.326.326H25.6a.326.326,0,0,0,.326-.326V23.125A.326.326,0,0,0,25.6,22.8Zm2.409,7.152H23.192v-6.5h2.083ZM10.722,30.6h2.735a.326.326,0,0,0,.326-.326V24.506a.326.326,0,0,0-.326-.326H10.722a.326.326,0,0,0-.326.326v5.771A.326.326,0,0,0,10.722,30.6Zm.326-5.771h2.083v5.12H11.048Zm1.042-1.376a1.39,1.39,0,0,0,1.3-1.882l3.837-2.61a1.388,1.388,0,0,0,2.028-.172l3.613,1.65a1.391,1.391,0,1,0,2.675-.2l5.63-3.68-.2.865a.326.326,0,1,0,.635.147l.382-1.655a.326.326,0,0,0-.244-.391l-1.637-.378a.326.326,0,0,0-.147.635l.892.206-5.669,3.7a1.388,1.388,0,0,0-2.046.154L19.526,18.2a1.391,1.391,0,1,0-2.666.226l-3.837,2.61a1.39,1.39,0,1,0-.934,2.42Zm12.144-3.488a.739.739,0,1,1-.739.739A.74.74,0,0,1,24.233,19.968ZM18.161,17.2a.739.739,0,1,1-.739.739A.74.74,0,0,1,18.161,17.2Zm-6.072,4.131a.739.739,0,1,1-.739.739A.74.74,0,0,1,12.089,21.326ZM32,31.674a.326.326,0,0,1-.326.326H9.325A.326.326,0,0,1,9,31.674V9.326a.326.326,0,1,1,.652,0V31.348H31.673A.326.326,0,0,1,32,31.674ZM14.653,13.284h2.374v1.165h-3.3a.326.326,0,0,0,0,.652h3.541l3.072,1.774a.326.326,0,0,0,.326,0l3.146-1.816a.326.326,0,0,0,.163-.282V11.142a.326.326,0,0,0-.163-.282L20.662,9.044a.326.326,0,0,0-.326,0l-3.072,1.774H15.585a.326.326,0,0,0,0,.652h1.442v1.165H14.653a.326.326,0,1,0,0,.652Zm3.025-1.578,2.494,1.44v2.88l-2.494-1.44Zm3.146,4.32v-2.88l2.494-1.44v2.88ZM20.5,9.7l2.494,1.44L20.5,12.582,18,11.142Zm-9.638,5.073a.326.326,0,0,1,.326-.326H12.1a.326.326,0,1,1,0,.652h-.912A.326.326,0,0,1,10.861,14.775Zm1.862-3.633a.326.326,0,0,1,.326-.326h.912a.326.326,0,1,1,0,.652H13.05A.326.326,0,0,1,12.724,11.142Zm-.931,1.816a.326.326,0,0,1,.326-.326h.912a.326.326,0,0,1,0,.652h-.912A.326.326,0,0,1,11.793,12.959Z" transform="translate(-8.999 -9)" fill="#fc526e"/>
</svg>
