<svg xmlns="http://www.w3.org/2000/svg" width="26.254" height="20.42" viewBox="0 0 26.254 20.42">
  <path id="Production" d="M24.491,40.846H8.822a.528.528,0,0,1-.544-.507V24.168c-.016-.211.17-.374.315-.507l3.311-3.087a.568.568,0,0,1,.386-.147H23.142c.135.127,0,1.014,0,1.014H12.519l-2.381,2.22h18.18l-2.376-2.22H22.028l1.115-1.014h3.023a.559.559,0,0,1,.386.147l3.311,3.087a.691.691,0,0,1,.315.507v4.289a7.46,7.46,0,0,0-8.582,3.9,6.575,6.575,0,0,0,2.9,8.485Zm10.041-5.8c-.332,7.678-12.091,7.708-12.439,0a6.02,6.02,0,0,1,6.219-5.8,6.02,6.02,0,0,1,6.219,5.8Zm-3.474-.507h-2.2V32.487a.545.545,0,0,0-1.087,0V34.54h-2.2a.508.508,0,1,0,0,1.014h2.2v2.053a.545.545,0,0,0,1.087,0V35.554h2.2a.508.508,0,1,0,0-1.014Z" transform="translate(-8.277 -20.426)" fill="#fff"/>
</svg>
