<svg id="Profit" xmlns="http://www.w3.org/2000/svg" width="23" height="23" viewBox="0 0 23 23">
  <path id="Path_8815" data-name="Path 8815" d="M3.953,42a3.953,3.953,0,1,0,3.953,3.953A3.953,3.953,0,0,0,3.953,42Zm0,7.188a3.234,3.234,0,1,1,3.234-3.234,3.234,3.234,0,0,1-3.234,3.234Z" transform="translate(0 -26.906)" fill="#fc526e"/>
  <path id="Path_8816" data-name="Path 8816" d="M9.065,47.239a.3.3,0,0,1,.092.191A.359.359,0,0,0,9.5,47.8a.371.371,0,0,0,.376-.342,1,1,0,0,0-.287-.71,1.322,1.322,0,0,0-.79-.363v-.022a.359.359,0,0,0-.719,0v.031a1.238,1.238,0,0,0,0,2.455V49.92a.566.566,0,0,1-.268-.127.3.3,0,0,1-.092-.182h0A.359.359,0,0,0,7,49.576a1,1,0,0,0,.287.71,1.321,1.321,0,0,0,.79.363v.022a.359.359,0,0,0,.719,0v-.031a1.238,1.238,0,0,0,0-2.455V47.112A.565.565,0,0,1,9.065,47.239Zm-1.345.379a.511.511,0,0,1,.359-.488v.976a.511.511,0,0,1-.359-.488Zm1.437,1.8A.511.511,0,0,1,8.8,49.9v-.976A.511.511,0,0,1,9.157,49.414Z" transform="translate(-4.485 -29.469)" fill="#fc526e"/>
  <path id="Path_8817" data-name="Path 8817" d="M35.319,29.453h-1.8V14.359A.359.359,0,0,0,33.162,14H30.287a.359.359,0,0,0-.359.359V29.453H28.49V16.516a.359.359,0,0,0-.359-.359H25.256a.359.359,0,0,0-.359.359V29.453H23.459V18.672a.359.359,0,0,0-.359-.359H20.225a.359.359,0,0,0-.359.359V24.5a.359.359,0,0,0,.719,0V19.031H22.74V29.453H21.328a.359.359,0,0,0,0,.719H34.959V31.25H20.149a.359.359,0,0,0,0,.719H35.319a.359.359,0,0,0,.359-.359v-1.8a.359.359,0,0,0-.359-.359ZM30.647,14.719H32.8V29.453H30.647Zm-5.031,2.156h2.156V29.453H25.615Z" transform="translate(-12.678 -8.969)" fill="#fc526e"/>
  <path id="Path_8818" data-name="Path 8818" d="M6.359,34.443a.359.359,0,0,0,.359-.359V31.719H8.875v2.365a.359.359,0,0,0,.719,0V31.359A.359.359,0,0,0,9.234,31H6.359A.359.359,0,0,0,6,31.359v2.724a.359.359,0,0,0,.359.359Z" transform="translate(-3.844 -19.859)" fill="#fc526e"/>
  <path id="Path_8819" data-name="Path 8819" d="M10.359,8.984h.017c6.44-.307,12.748-5.867,14.717-7.761v2.37a.359.359,0,1,0,.719,0V.355A.368.368,0,0,0,25.453,0H22.219a.359.359,0,1,0,0,.719h2.355c-1.937,1.84-8.134,7.257-14.232,7.547a.359.359,0,0,0,.017.718Z" transform="translate(-6.406 0)" fill="#fc526e"/>
</svg>
