<svg xmlns="http://www.w3.org/2000/svg" width="25.19" height="25.004" viewBox="0 0 25.19 25.004">
  <g id="Set_" data-name="Set %" transform="translate(0 -0.346)">
    <path id="Path_11626" data-name="Path 11626" d="M114.889,11.175v.016a2.719,2.719,0,0,0,1.552,2.594l.01.005a1.828,1.828,0,0,1,.828.8l0,.008a2.841,2.841,0,0,0,2.67,1.49h.017a1.944,1.944,0,0,1,1.149.3,2.914,2.914,0,0,0,3.091,0,1.944,1.944,0,0,1,1.149-.3h.017a2.842,2.842,0,0,0,2.671-1.491l0-.005a1.831,1.831,0,0,1,.83-.8l.008,0a2.719,2.719,0,0,0,1.552-2.594v-.015a1.739,1.739,0,0,1,.3-1.078,2.675,2.675,0,0,0,0-3.025,1.739,1.739,0,0,1-.3-1.078V5.979a2.719,2.719,0,0,0-1.553-2.594l-.009,0a1.826,1.826,0,0,1-.827-.793l-.005-.01a2.843,2.843,0,0,0-2.67-1.49h-.017a1.943,1.943,0,0,1-1.149-.3h0a2.914,2.914,0,0,0-3.091,0,1.946,1.946,0,0,1-1.149.3h-.017a2.841,2.841,0,0,0-2.669,1.49l0,.007a1.829,1.829,0,0,1-.829.8l-.01,0a2.719,2.719,0,0,0-1.552,2.594v.015a1.738,1.738,0,0,1-.3,1.078,2.675,2.675,0,0,0,0,3.025,1.738,1.738,0,0,1,.3,1.078Zm.469-3.57a2.682,2.682,0,0,0,.467-1.663V5.925a1.783,1.783,0,0,1,1.024-1.7l.008,0a2.761,2.761,0,0,0,1.251-1.2l0-.009a1.9,1.9,0,0,1,1.789-.989h.016a2.873,2.873,0,0,0,1.7-.442,1.971,1.971,0,0,1,2.091,0,2.88,2.88,0,0,0,1.7.442h.016a1.9,1.9,0,0,1,1.789.987l.006.012a2.761,2.761,0,0,0,1.25,1.2l.008,0a1.783,1.783,0,0,1,1.025,1.7v.017a2.681,2.681,0,0,0,.467,1.663,1.732,1.732,0,0,1,0,1.96,2.684,2.684,0,0,0-.467,1.664v.016a1.784,1.784,0,0,1-1.025,1.7l-.007,0a2.765,2.765,0,0,0-1.252,1.206l0,.007a1.9,1.9,0,0,1-1.79.989h-.016a2.879,2.879,0,0,0-1.7.442,1.971,1.971,0,0,1-2.09,0,2.874,2.874,0,0,0-1.541-.446q-.079,0-.159,0H119.9a1.9,1.9,0,0,1-1.79-.99l0-.009a2.758,2.758,0,0,0-1.249-1.2l-.009,0a1.783,1.783,0,0,1-1.025-1.7v-.017a2.683,2.683,0,0,0-.467-1.663,1.732,1.732,0,0,1,0-1.959Zm0,0" transform="translate(-107.427)" fill="#fc526e"/>
    <path id="Path_11627" data-name="Path 11627" d="M204.725,66.7a.469.469,0,0,0,.646-.15l5.556-8.9a.469.469,0,1,0-.8-.5l-5.556,8.9a.469.469,0,0,0,.15.646Zm0,0" transform="translate(-192.515 -53.264)" fill="#fc526e"/>
    <path id="Path_11628" data-name="Path 11628" d="M183.5,65.442a2.382,2.382,0,1,0-2.071-2.362A2.234,2.234,0,0,0,183.5,65.442Zm0-3.786a1.461,1.461,0,1,1-1.133,1.424A1.305,1.305,0,0,1,183.5,61.657Zm0,0" transform="translate(-170.797 -56.834)" fill="#fc526e"/>
    <path id="Path_11629" data-name="Path 11629" d="M267.684,142.877a2.089,2.089,0,1,0,2.071-2.362A2.233,2.233,0,0,0,267.684,142.877Zm3.2,0a1.163,1.163,0,1,1-1.133-1.424A1.305,1.305,0,0,1,270.888,142.877Zm0,0" transform="translate(-251.991 -131.953)" fill="#fc526e"/>
    <path id="Path_11630" data-name="Path 11630" d="M25.13,268.327A2.369,2.369,0,0,0,22,267.374l-3.674,1.736a2.993,2.993,0,0,0-2.551-1.574l-3.391-.093a3.585,3.585,0,0,1-1.541-.4l-.345-.179a6.087,6.087,0,0,0-5.638.006l.022-.782a.469.469,0,0,0-.456-.482l-3.719-.1a.469.469,0,0,0-.482.456L0,274.123a.469.469,0,0,0,.456.482l3.719.1h.013a.469.469,0,0,0,.469-.456l.011-.39.966-.517a1.658,1.658,0,0,1,1.237-.135l5.769,1.619.03.008a6.175,6.175,0,0,0,1.268.131,6.258,6.258,0,0,0,2.614-.57.452.452,0,0,0,.058-.032l8.365-5.411a.469.469,0,0,0,.154-.625ZM.951,273.68l.2-7.223,2.781.077-.2,7.224Zm15.179-.123a5.316,5.316,0,0,1-3.252.363L7.124,272.3a2.592,2.592,0,0,0-1.933.211l-.494.264.132-4.8a5.155,5.155,0,0,1,5.237-.279l.345.179a4.527,4.527,0,0,0,1.947.5l3.391.093a2.057,2.057,0,0,1,1.955,1.639l-5.052-.139a.469.469,0,0,0-.026.938l5.575.153h.013a.469.469,0,0,0,.469-.456A2.993,2.993,0,0,0,18.64,270l3.767-1.78.011-.005a1.432,1.432,0,0,1,1.62.227Zm0,0" transform="translate(0 -249.615)" fill="#fc526e"/>
  </g>
</svg>
