<svg xmlns="http://www.w3.org/2000/svg" width="19.439" height="20.42" viewBox="0 0 19.439 20.42">
  <path id="Settings" d="M15.692,3.449a1.132,1.132,0,0,0-.857-.757,10.2,10.2,0,0,0-3.933,0,1.132,1.132,0,0,0-.857.757L9.409,5.371a8.218,8.218,0,0,0-1.166.671l-1.982-.41A1.141,1.141,0,0,0,5.174,6,10.232,10.232,0,0,0,3.21,9.4a1.14,1.14,0,0,0,.224,1.122L4.783,12.04a7.951,7.951,0,0,0,0,1.342L3.434,14.895a1.14,1.14,0,0,0-.224,1.122,10.232,10.232,0,0,0,1.963,3.407,1.14,1.14,0,0,0,1.087.365l1.982-.41a8.237,8.237,0,0,0,1.166.671l.637,1.922a1.131,1.131,0,0,0,.857.756,10.191,10.191,0,0,0,3.933,0,1.132,1.132,0,0,0,.857-.756l.637-1.922a8.234,8.234,0,0,0,1.166-.671l1.982.41a1.14,1.14,0,0,0,1.087-.365,10.232,10.232,0,0,0,1.963-3.407,1.14,1.14,0,0,0-.224-1.122l-1.349-1.513a7.951,7.951,0,0,0,0-1.342L22.3,10.527A1.14,1.14,0,0,0,22.527,9.4,10.232,10.232,0,0,0,20.564,6a1.14,1.14,0,0,0-1.087-.365l-1.982.41a8.216,8.216,0,0,0-1.166-.671l-.637-1.922ZM12.869,8.9a3.81,3.81,0,1,0,3.81,3.81A3.81,3.81,0,0,0,12.869,8.9Z" transform="translate(-3.148 -2.502)" fill="#fff" fill-rule="evenodd"/>
</svg>
