<svg id="settings" xmlns="http://www.w3.org/2000/svg" width="23" height="23" viewBox="0 0 23 23">
  <g id="Group_6717" data-name="Group 6717" transform="translate(0 7.667)">
    <g id="Group_6716" data-name="Group 6716">
      <path id="Path_8927" data-name="Path 8927" d="M14.183,165.75h-.422a.377.377,0,0,1-.355-.248c-.047-.123-.1-.243-.151-.361a.378.378,0,0,1,.077-.428l.3-.3a1.153,1.153,0,0,0,0-1.625L12.548,161.7a1.153,1.153,0,0,0-1.625,0l-.3.3a.38.38,0,0,1-.428.077c-.119-.054-.239-.1-.362-.153a.377.377,0,0,1-.249-.356v-.422A1.15,1.15,0,0,0,8.433,160H6.9a1.15,1.15,0,0,0-1.15,1.15v.422a.377.377,0,0,1-.248.355c-.123.047-.243.1-.361.151A.379.379,0,0,1,4.713,162l-.3-.3a1.153,1.153,0,0,0-1.625,0L1.7,162.787a1.153,1.153,0,0,0,0,1.625l.3.3a.378.378,0,0,1,.077.428c-.054.119-.1.239-.151.362a.377.377,0,0,1-.358.247H1.15A1.15,1.15,0,0,0,0,166.9v1.533a1.15,1.15,0,0,0,1.15,1.15h.422a.377.377,0,0,1,.355.248c.047.123.1.243.151.361A.378.378,0,0,1,2,170.62l-.3.3a1.153,1.153,0,0,0,0,1.625l1.083,1.083a1.153,1.153,0,0,0,1.625,0l.3-.3a.38.38,0,0,1,.428-.077c.119.054.239.1.362.153a.377.377,0,0,1,.251.356v.422a1.15,1.15,0,0,0,1.15,1.15H8.433a1.15,1.15,0,0,0,1.15-1.15v-.422a.377.377,0,0,1,.248-.355c.123-.047.243-.1.361-.151a.379.379,0,0,1,.428.077l.3.3a1.153,1.153,0,0,0,1.625,0l1.083-1.083a1.153,1.153,0,0,0,0-1.625l-.3-.3a.378.378,0,0,1-.077-.428c.054-.119.1-.239.153-.362a.377.377,0,0,1,.356-.249h.422a1.15,1.15,0,0,0,1.15-1.15V166.9A1.15,1.15,0,0,0,14.183,165.75Zm.383,2.683a.383.383,0,0,1-.383.383h-.422a1.154,1.154,0,0,0-1.073.741q-.061.161-.132.317a1.153,1.153,0,0,0,.23,1.286l.3.3a.383.383,0,0,1,0,.542h0L12,173.087a.383.383,0,0,1-.542,0l-.3-.3a1.152,1.152,0,0,0-1.286-.23c-.1.047-.21.091-.316.132a1.154,1.154,0,0,0-.741,1.073v.422a.383.383,0,0,1-.383.383H6.9a.383.383,0,0,1-.383-.383v-.422a1.154,1.154,0,0,0-.741-1.073q-.161-.061-.317-.132a1.154,1.154,0,0,0-1.286.23l-.3.3a.383.383,0,0,1-.542,0h0L2.246,172a.383.383,0,0,1,0-.542l.3-.3a1.153,1.153,0,0,0,.23-1.286c-.047-.1-.091-.21-.132-.316a1.153,1.153,0,0,0-1.073-.742H1.15a.383.383,0,0,1-.383-.383V166.9a.383.383,0,0,1,.383-.383h.422a1.154,1.154,0,0,0,1.073-.741q.061-.161.132-.317a1.153,1.153,0,0,0-.23-1.286l-.3-.3a.383.383,0,0,1,0-.542h0l1.083-1.083a.383.383,0,0,1,.542,0l.3.3a1.152,1.152,0,0,0,1.286.23c.1-.047.21-.091.316-.132a1.153,1.153,0,0,0,.743-1.073v-.422a.383.383,0,0,1,.383-.383H8.433a.383.383,0,0,1,.383.383v.422a1.154,1.154,0,0,0,.741,1.073q.161.061.317.132a1.152,1.152,0,0,0,1.286-.23l.3-.3a.386.386,0,0,1,.542,0l1.083,1.083a.383.383,0,0,1,0,.542l-.3.3a1.154,1.154,0,0,0-.23,1.286c.047.1.091.21.132.316a1.153,1.153,0,0,0,1.073.741h.422a.383.383,0,0,1,.383.383v1.533Z" transform="translate(0 -160)" fill="#fc526e"/>
    </g>
  </g>
  <g id="Group_6719" data-name="Group 6719" transform="translate(4.215 11.883)">
    <g id="Group_6718" data-name="Group 6718">
      <path id="Path_8928" data-name="Path 8928" d="M94.853,251.3c0-.092-.01-.184-.021-.275s-.027-.2-.047-.291c-.013-.062-.031-.124-.048-.186q-.032-.118-.072-.233c-.019-.053-.038-.106-.058-.159a3.411,3.411,0,0,0-.169-.359c0-.009-.008-.018-.013-.027a3.4,3.4,0,0,0-.345-.5c-.011-.014-.024-.027-.035-.04-.053-.062-.107-.123-.164-.181-.03-.031-.061-.06-.093-.09s-.077-.071-.115-.1-.094-.08-.142-.117l-.063-.047A3.426,3.426,0,0,0,91.411,248c-.038,0-.077.006-.115.007-.082,0-.164.007-.246.015l-.13.016a3.515,3.515,0,0,0-.371.069,3.452,3.452,0,0,0,0,6.685.088.088,0,0,1,.019,0,3.66,3.66,0,0,0,.4.077c.089.011.179.013.268.018.06,0,.115.012.177.012.109,0,.223-.007.338-.019a.374.374,0,0,0,.038,0c.093-.01.187-.024.284-.043.038-.007.074-.017.111-.025.067-.016.135-.032.2-.053.054-.016.106-.035.158-.053l.161-.059c.054-.021.1-.044.15-.067s.128-.059.192-.093h0a4.538,4.538,0,0,0,.982-.71,1.207,1.207,0,0,0,.205-.251,4.092,4.092,0,0,0,.577-1.575c.011-.074.02-.148.026-.223s.009-.138.011-.207c0-.022,0-.043,0-.064C94.861,251.4,94.855,251.349,94.853,251.3Zm-.764.251c0,.032,0,.064,0,.1-.007.093-.019.186-.035.279A2.689,2.689,0,0,1,92.7,253.8c-.048.025-.094.048-.141.07l-.032.015a2.769,2.769,0,0,1-.7.212l-.051.008c-.048.007-.1.013-.142.017s-.124.008-.187.01h-.08a2.693,2.693,0,0,1-.271-.017l-.046-.005a2.831,2.831,0,0,1-.313-.059,2.683,2.683,0,0,1,0-5.2h0a2.775,2.775,0,0,1,.674-.084,2.651,2.651,0,0,1,.328.022l.087.013c.083.013.165.03.246.05l.079.02a2.706,2.706,0,0,1,.585.246l.087.053c.061.038.119.077.177.12.031.023.062.045.092.069a2.766,2.766,0,0,1,.216.192c.027.028.052.058.079.087.044.048.087.1.128.149.028.036.056.072.082.11.038.055.077.113.111.171l.058.1a2.629,2.629,0,0,1,.132.281c.015.038.028.077.042.115.025.071.046.142.065.214.01.038.02.072.028.11a2.7,2.7,0,0,1,.049.314c0,.028,0,.056,0,.084C94.091,251.37,94.092,251.459,94.089,251.548Z" transform="translate(-87.959 -248)" fill="#fc526e"/>
    </g>
  </g>
  <g id="Group_6721" data-name="Group 6721" transform="translate(4.181)">
    <g id="Group_6720" data-name="Group 6720">
      <path id="Path_8929" data-name="Path 8929" d="M104.93,8.05h-1.206a.374.374,0,0,1-.357-.251,7.984,7.984,0,0,0-.43-1.039.375.375,0,0,1,.074-.433l.855-.856a1.15,1.15,0,0,0,0-1.626l-1.63-1.627a1.15,1.15,0,0,0-1.626,0l-.854.854a.375.375,0,0,1-.432.074,7.964,7.964,0,0,0-1.04-.433.374.374,0,0,1-.253-.357V1.15A1.15,1.15,0,0,0,96.88,0h-2.3a1.15,1.15,0,0,0-1.15,1.15V2.356a.374.374,0,0,1-.251.357,7.988,7.988,0,0,0-1.039.432.375.375,0,0,1-.433-.074l-.856-.855a1.152,1.152,0,0,0-1.626,0L87.6,3.844a1.15,1.15,0,0,0,0,1.626l1.257,1.259a.383.383,0,0,0,.543-.541L88.14,4.929a.383.383,0,0,1,0-.542L89.767,2.76a.383.383,0,0,1,.542,0l.856.855a1.14,1.14,0,0,0,1.317.216,7.252,7.252,0,0,1,.94-.391A1.14,1.14,0,0,0,94.2,2.356V1.15A.383.383,0,0,1,94.58.767h2.3a.383.383,0,0,1,.383.383V2.356a1.14,1.14,0,0,0,.775,1.084,7.23,7.23,0,0,1,.94.391,1.142,1.142,0,0,0,1.317-.217l.856-.854a.383.383,0,0,1,.542,0l1.627,1.627a.383.383,0,0,1,0,.542l-.855.856a1.141,1.141,0,0,0-.216,1.317,7.252,7.252,0,0,1,.391.94,1.14,1.14,0,0,0,1.085.775h1.206a.383.383,0,0,1,.383.383v2.3a.383.383,0,0,1-.383.383h-1.206a1.14,1.14,0,0,0-1.084.775,7.222,7.222,0,0,1-.391.94,1.141,1.141,0,0,0,.217,1.317l.855.856a.383.383,0,0,1,0,.542l-1.628,1.627a.383.383,0,0,1-.542,0l-1.26-1.257a.383.383,0,0,0-.551.533l.009.009,1.259,1.257a1.15,1.15,0,0,0,1.626,0l1.627-1.626a1.15,1.15,0,0,0,0-1.626l-.854-.855a.376.376,0,0,1-.074-.432,7.965,7.965,0,0,0,.433-1.04.374.374,0,0,1,.357-.253h1.206a1.15,1.15,0,0,0,1.15-1.15V9.2A1.15,1.15,0,0,0,104.93,8.05Z" transform="translate(-87.261)" fill="#fc526e"/>
    </g>
  </g>
  <g id="Group_6723" data-name="Group 6723" transform="translate(9.019 5.369)">
    <g id="Group_6722" data-name="Group 6722">
      <path id="Path_8930" data-name="Path 8930" d="M195.373,113.507a4.988,4.988,0,0,0-7.047,0,.383.383,0,0,0,.542.542,4.217,4.217,0,0,1,6,5.923l-.04.04a.383.383,0,1,0,.533.551l.009-.009A4.988,4.988,0,0,0,195.373,113.507Z" transform="translate(-188.219 -112.049)" fill="#fc526e"/>
    </g>
  </g>
</svg>
