<svg xmlns="http://www.w3.org/2000/svg" width="29.601" height="38.744" viewBox="0 0 29.601 38.744">
  <path id="market-share" d="M95.5,28.55h-4.6a.625.625,0,0,0-.625.625V46.119a.625.625,0,0,0,.625.625h4.6a.625.625,0,0,0,.625-.625V29.175A.625.625,0,0,0,95.5,28.55Zm-.625,16.944H91.531V29.8h3.346Zm-7.909-12.12h-4.6a.625.625,0,0,0-.625.625v12.12a.625.625,0,0,0,.625.625h4.6a.625.625,0,0,0,.625-.625V34A.625.625,0,0,0,86.968,33.374Zm-.625,12.12H83V34.624h3.346Zm-7.909-7.5h-4.6a.625.625,0,0,0-.625.625v7.5a.625.625,0,0,0,.625.625h4.6a.625.625,0,0,0,.625-.625v-7.5A.625.625,0,0,0,78.433,37.994Zm-.625,7.5H74.462v-6.25h3.346ZM91.238,22.561a.625.625,0,0,1,.59-.658l2.9-.158a.625.625,0,0,1,.652.714l-.419,2.877a.625.625,0,0,1-.618.535.618.618,0,0,1-.091-.007.625.625,0,0,1-.528-.708l.165-1.132A56.215,56.215,0,0,1,75.055,34.856a.625.625,0,0,1-.411-1.18A54.973,54.973,0,0,0,93.065,23.087l-1.17.063a.625.625,0,0,1-.658-.59Zm-5.164-2.475a.625.625,0,0,0-.625-.625H76.925V10.937a.625.625,0,0,0-.625-.625,9.774,9.774,0,1,0,9.774,9.774Zm-18.3,0a8.536,8.536,0,0,1,7.9-8.5v8.5a.625.625,0,0,0,.625.625h8.5a8.524,8.524,0,0,1-17.026-.625ZM78.612,18.4h9.149a.625.625,0,0,0,.625-.625A9.785,9.785,0,0,0,78.612,8a.625.625,0,0,0-.625.625v9.149a.625.625,0,0,0,.625.625Zm.625-9.126a8.537,8.537,0,0,1,7.877,7.877H79.236Z" transform="translate(-66.526 -8)" fill="#fff"/>
</svg>
