<svg xmlns="http://www.w3.org/2000/svg" width="25.689" height="20.42" viewBox="0 0 25.689 20.42">
  <path id="User_Management" data-name="User Management" d="M107.539,9h2.966v1.488a7.5,7.5,0,0,1,2.7,1.119l1.053-1.053,2.1,2.1L115.3,13.7a7.5,7.5,0,0,1,1.119,2.7h1.488v1.12c-.1-.009-.207-.014-.313-.014a3.471,3.471,0,0,0-2.38,6,5.553,5.553,0,0,0-1.553,1.116l-.459-.459q-.222.148-.454.28a6.259,6.259,0,0,0-1.2-.706,3.851,3.851,0,0,0,1.328-2.914c0-.126-.006-.25-.018-.373a4.621,4.621,0,1,0-7.685,0c-.012.123-.018.247-.018.373a3.852,3.852,0,0,0,1.328,2.914,6.259,6.259,0,0,0-1.2.706q-.232-.132-.454-.28l-.349.349a5.551,5.551,0,0,0-1.442-1.006,3.471,3.471,0,0,0-2.379-6,3.5,3.5,0,0,0-.534.041V16.4h1.488a7.5,7.5,0,0,1,1.119-2.7l-1.053-1.053,2.1-2.1,1.053,1.053a7.5,7.5,0,0,1,2.7-1.119Zm6.587,19.815a5.14,5.14,0,0,0-10.208,0,.539.539,0,0,0,.538.605h9.132A.539.539,0,0,0,114.126,28.815Zm-5.1-10.767a2.778,2.778,0,1,0,2.778,2.778A2.778,2.778,0,0,0,109.022,18.048Zm12.95,9.8a4.415,4.415,0,0,0-7.9-2.049,6.182,6.182,0,0,1,1.094,2.666h6.265A.539.539,0,0,0,121.972,27.849Zm-21.3-9.257a2.389,2.389,0,1,0,2.389,2.389A2.389,2.389,0,0,0,100.67,18.592Zm16.926,0a2.389,2.389,0,1,0,2.389,2.389A2.389,2.389,0,0,0,117.6,18.592Zm-13.521,7.064a4.415,4.415,0,0,0-7.781,2.193.539.539,0,0,0,.536.617h6.044A6.186,6.186,0,0,1,104.074,25.656Z" transform="translate(-96.287 -9)" fill="#fff" fill-rule="evenodd"/>
</svg>
